# Tiled2Unity generated file. Do not modify by hand.
# Wavefront file for 'Underground-Cavern_mesh_0003.obj'

# Vertices (Count = 656)
v -1088 -224 0
v -1120 -224 0
v -1120 -192 0
v -1088 -192 0
v -1120 -224 0
v -1152 -224 0
v -1152 -192 0
v -1120 -192 0
v -1152 -224 0
v -1184 -224 0
v -1184 -192 0
v -1152 -192 0
v -1184 -224 0
v -1216 -224 0
v -1216 -192 0
v -1184 -192 0
v -1216 -224 0
v -1248 -224 0
v -1248 -192 0
v -1216 -192 0
v -1248 -224 0
v -1280 -224 0
v -1280 -192 0
v -1248 -192 0
v -1280 -224 0
v -1312 -224 0
v -1312 -192 0
v -1280 -192 0
v -1312 -224 0
v -1344 -224 0
v -1344 -192 0
v -1312 -192 0
v -1344 -224 0
v -1376 -224 0
v -1376 -192 0
v -1344 -192 0
v -1376 -224 0
v -1408 -224 0
v -1408 -192 0
v -1376 -192 0
v -1408 -224 0
v -1440 -224 0
v -1440 -192 0
v -1408 -192 0
v -1440 -224 0
v -1472 -224 0
v -1472 -192 0
v -1440 -192 0
v -1472 -224 0
v -1504 -224 0
v -1504 -192 0
v -1472 -192 0
v -1504 -224 0
v -1536 -224 0
v -1536 -192 0
v -1504 -192 0
v -736 -256 0
v -768 -256 0
v -768 -224 0
v -736 -224 0
v -768 -256 0
v -800 -256 0
v -800 -224 0
v -768 -224 0
v -800 -256 0
v -832 -256 0
v -832 -224 0
v -800 -224 0
v -832 -256 0
v -864 -256 0
v -864 -224 0
v -832 -224 0
v -864 -256 0
v -896 -256 0
v -896 -224 0
v -864 -224 0
v -1088 -256 0
v -1120 -256 0
v -1120 -224 0
v -1088 -224 0
v -1120 -256 0
v -1152 -256 0
v -1152 -224 0
v -1120 -224 0
v -1152 -256 0
v -1184 -256 0
v -1184 -224 0
v -1152 -224 0
v -1184 -256 0
v -1216 -256 0
v -1216 -224 0
v -1184 -224 0
v -1216 -256 0
v -1248 -256 0
v -1248 -224 0
v -1216 -224 0
v -1248 -256 0
v -1280 -256 0
v -1280 -224 0
v -1248 -224 0
v -1280 -256 0
v -1312 -256 0
v -1312 -224 0
v -1280 -224 0
v -1312 -256 0
v -1344 -256 0
v -1344 -224 0
v -1312 -224 0
v -1344 -256 0
v -1376 -256 0
v -1376 -224 0
v -1344 -224 0
v -1376 -256 0
v -1408 -256 0
v -1408 -224 0
v -1376 -224 0
v -1408 -256 0
v -1440 -256 0
v -1440 -224 0
v -1408 -224 0
v -1440 -256 0
v -1472 -256 0
v -1472 -224 0
v -1440 -224 0
v -1472 -256 0
v -1504 -256 0
v -1504 -224 0
v -1472 -224 0
v -1504 -256 0
v -1536 -256 0
v -1536 -224 0
v -1504 -224 0
v -448 -288 0
v -480 -288 0
v -480 -256 0
v -448 -256 0
v -480 -288 0
v -512 -288 0
v -512 -256 0
v -480 -256 0
v -512 -288 0
v -544 -288 0
v -544 -256 0
v -512 -256 0
v -544 -288 0
v -576 -288 0
v -576 -256 0
v -544 -256 0
v -576 -288 0
v -608 -288 0
v -608 -256 0
v -576 -256 0
v -608 -288 0
v -640 -288 0
v -640 -256 0
v -608 -256 0
v -640 -288 0
v -672 -288 0
v -672 -256 0
v -640 -256 0
v -672 -288 0
v -704 -288 0
v -704 -256 0
v -672 -256 0
v -704 -288 0
v -736 -288 0
v -736 -256 0
v -704 -256 0
v -736 -288 0
v -768 -288 0
v -768 -256 0
v -736 -256 0
v -768 -288 0
v -800 -288 0
v -800 -256 0
v -768 -256 0
v -800 -288 0
v -832 -288 0
v -832 -256 0
v -800 -256 0
v -832 -288 0
v -864 -288 0
v -864 -256 0
v -832 -256 0
v -864 -288 0
v -896 -288 0
v -896 -256 0
v -864 -256 0
v -896 -288 0
v -928 -288 0
v -928 -256 0
v -896 -256 0
v -928 -288 0
v -960 -288 0
v -960 -256 0
v -928 -256 0
v -960 -288 0
v -992 -288 0
v -992 -256 0
v -960 -256 0
v -992 -288 0
v -1024 -288 0
v -1024 -256 0
v -992 -256 0
v -1024 -288 0
v -1056 -288 0
v -1056 -256 0
v -1024 -256 0
v -1056 -288 0
v -1088 -288 0
v -1088 -256 0
v -1056 -256 0
v -1088 -288 0
v -1120 -288 0
v -1120 -256 0
v -1088 -256 0
v -448 -320 0
v -480 -320 0
v -480 -288 0
v -448 -288 0
v -480 -320 0
v -512 -320 0
v -512 -288 0
v -480 -288 0
v -512 -320 0
v -544 -320 0
v -544 -288 0
v -512 -288 0
v -544 -320 0
v -576 -320 0
v -576 -288 0
v -544 -288 0
v -576 -320 0
v -608 -320 0
v -608 -288 0
v -576 -288 0
v -608 -320 0
v -640 -320 0
v -640 -288 0
v -608 -288 0
v -640 -320 0
v -672 -320 0
v -672 -288 0
v -640 -288 0
v -672 -320 0
v -704 -320 0
v -704 -288 0
v -672 -288 0
v -704 -320 0
v -736 -320 0
v -736 -288 0
v -704 -288 0
v -896 -320 0
v -928 -320 0
v -928 -288 0
v -896 -288 0
v -928 -320 0
v -960 -320 0
v -960 -288 0
v -928 -288 0
v -960 -320 0
v -992 -320 0
v -992 -288 0
v -960 -288 0
v -992 -320 0
v -1024 -320 0
v -1024 -288 0
v -992 -288 0
v -1024 -320 0
v -1056 -320 0
v -1056 -288 0
v -1024 -288 0
v -1056 -320 0
v -1088 -320 0
v -1088 -288 0
v -1056 -288 0
v -1088 -320 0
v -1120 -320 0
v -1120 -288 0
v -1088 -288 0
v -320 -544 0
v -352 -544 0
v -352 -512 0
v -320 -512 0
v -320 -576 0
v -352 -576 0
v -352 -544 0
v -320 -544 0
v -1184 -576 0
v -1216 -576 0
v -1216 -544 0
v -1184 -544 0
v -1216 -576 0
v -1248 -576 0
v -1248 -544 0
v -1216 -544 0
v -1248 -576 0
v -1280 -576 0
v -1280 -544 0
v -1248 -544 0
v -1280 -576 0
v -1312 -576 0
v -1312 -544 0
v -1280 -544 0
v -1184 -608 0
v -1216 -608 0
v -1216 -576 0
v -1184 -576 0
v -1216 -608 0
v -1248 -608 0
v -1248 -576 0
v -1216 -576 0
v -1248 -608 0
v -1280 -608 0
v -1280 -576 0
v -1248 -576 0
v -1280 -608 0
v -1312 -608 0
v -1312 -576 0
v -1280 -576 0
v -224 -736 0
v -256 -736 0
v -256 -704 0
v -224 -704 0
v -256 -736 0
v -288 -736 0
v -288 -704 0
v -256 -704 0
v -288 -736 0
v -320 -736 0
v -320 -704 0
v -288 -704 0
v -320 -736 0
v -352 -736 0
v -352 -704 0
v -320 -704 0
v -864 -736 0
v -896 -736 0
v -896 -704 0
v -864 -704 0
v -896 -736 0
v -928 -736 0
v -928 -704 0
v -896 -704 0
v -928 -736 0
v -960 -736 0
v -960 -704 0
v -928 -704 0
v -960 -736 0
v -992 -736 0
v -992 -704 0
v -960 -704 0
v -992 -736 0
v -1024 -736 0
v -1024 -704 0
v -992 -704 0
v -1024 -736 0
v -1056 -736 0
v -1056 -704 0
v -1024 -704 0
v -1056 -736 0
v -1088 -736 0
v -1088 -704 0
v -1056 -704 0
v -224 -768 0
v -256 -768 0
v -256 -736 0
v -224 -736 0
v -256 -768 0
v -288 -768 0
v -288 -736 0
v -256 -736 0
v -288 -768 0
v -320 -768 0
v -320 -736 0
v -288 -736 0
v -320 -768 0
v -352 -768 0
v -352 -736 0
v -320 -736 0
v -864 -768 0
v -896 -768 0
v -896 -736 0
v -864 -736 0
v -896 -768 0
v -928 -768 0
v -928 -736 0
v -896 -736 0
v -928 -768 0
v -960 -768 0
v -960 -736 0
v -928 -736 0
v -960 -768 0
v -992 -768 0
v -992 -736 0
v -960 -736 0
v -992 -768 0
v -1024 -768 0
v -1024 -736 0
v -992 -736 0
v -1024 -768 0
v -1056 -768 0
v -1056 -736 0
v -1024 -736 0
v -1056 -768 0
v -1088 -768 0
v -1088 -736 0
v -1056 -736 0
v -192 -800 0
v -224 -800 0
v -224 -768 0
v -192 -768 0
v -224 -800 0
v -256 -800 0
v -256 -768 0
v -224 -768 0
v -192 -832 0
v -224 -832 0
v -224 -800 0
v -192 -800 0
v -224 -832 0
v -256 -832 0
v -256 -800 0
v -224 -800 0
v -672 -864 0
v -704 -864 0
v -704 -832 0
v -672 -832 0
v -704 -864 0
v -736 -864 0
v -736 -832 0
v -704 -832 0
v -736 -864 0
v -768 -864 0
v -768 -832 0
v -736 -832 0
v -768 -864 0
v -800 -864 0
v -800 -832 0
v -768 -832 0
v -800 -864 0
v -832 -864 0
v -832 -832 0
v -800 -832 0
v -832 -864 0
v -864 -864 0
v -864 -832 0
v -832 -832 0
v -864 -864 0
v -896 -864 0
v -896 -832 0
v -864 -832 0
v -672 -896 0
v -704 -896 0
v -704 -864 0
v -672 -864 0
v -704 -896 0
v -736 -896 0
v -736 -864 0
v -704 -864 0
v -736 -896 0
v -768 -896 0
v -768 -864 0
v -736 -864 0
v -768 -896 0
v -800 -896 0
v -800 -864 0
v -768 -864 0
v -800 -896 0
v -832 -896 0
v -832 -864 0
v -800 -864 0
v -832 -896 0
v -864 -896 0
v -864 -864 0
v -832 -864 0
v -864 -896 0
v -896 -896 0
v -896 -864 0
v -864 -864 0
v -1120 -896 0
v -1152 -896 0
v -1152 -864 0
v -1120 -864 0
v -1152 -896 0
v -1184 -896 0
v -1184 -864 0
v -1152 -864 0
v -1184 -896 0
v -1216 -896 0
v -1216 -864 0
v -1184 -864 0
v -1120 -928 0
v -1152 -928 0
v -1152 -896 0
v -1120 -896 0
v -1152 -928 0
v -1184 -928 0
v -1184 -896 0
v -1152 -896 0
v -1184 -928 0
v -1216 -928 0
v -1216 -896 0
v -1184 -896 0
v -128 -960 0
v -160 -960 0
v -160 -928 0
v -128 -928 0
v -160 -960 0
v -192 -960 0
v -192 -928 0
v -160 -928 0
v -192 -960 0
v -224 -960 0
v -224 -928 0
v -192 -928 0
v -128 -992 0
v -160 -992 0
v -160 -960 0
v -128 -960 0
v -160 -992 0
v -192 -992 0
v -192 -960 0
v -160 -960 0
v -192 -992 0
v -224 -992 0
v -224 -960 0
v -192 -960 0
v -96 -1120 0
v -128 -1120 0
v -128 -1088 0
v -96 -1088 0
v -128 -1120 0
v -160 -1120 0
v -160 -1088 0
v -128 -1088 0
v -96 -1152 0
v -128 -1152 0
v -128 -1120 0
v -96 -1120 0
v -128 -1152 0
v -160 -1152 0
v -160 -1120 0
v -128 -1120 0
v -960 -1152 0
v -992 -1152 0
v -992 -1120 0
v -960 -1120 0
v -992 -1152 0
v -1024 -1152 0
v -1024 -1120 0
v -992 -1120 0
v -1024 -1152 0
v -1056 -1152 0
v -1056 -1120 0
v -1024 -1120 0
v -1056 -1152 0
v -1088 -1152 0
v -1088 -1120 0
v -1056 -1120 0
v -1088 -1152 0
v -1120 -1152 0
v -1120 -1120 0
v -1088 -1120 0
v -1120 -1152 0
v -1152 -1152 0
v -1152 -1120 0
v -1120 -1120 0
v -288 -1184 0
v -320 -1184 0
v -320 -1152 0
v -288 -1152 0
v -320 -1184 0
v -352 -1184 0
v -352 -1152 0
v -320 -1152 0
v -352 -1184 0
v -384 -1184 0
v -384 -1152 0
v -352 -1152 0
v -384 -1184 0
v -416 -1184 0
v -416 -1152 0
v -384 -1152 0
v -960 -1184 0
v -992 -1184 0
v -992 -1152 0
v -960 -1152 0
v -992 -1184 0
v -1024 -1184 0
v -1024 -1152 0
v -992 -1152 0
v -1024 -1184 0
v -1056 -1184 0
v -1056 -1152 0
v -1024 -1152 0
v -1056 -1184 0
v -1088 -1184 0
v -1088 -1152 0
v -1056 -1152 0
v -1088 -1184 0
v -1120 -1184 0
v -1120 -1152 0
v -1088 -1152 0
v -1120 -1184 0
v -1152 -1184 0
v -1152 -1152 0
v -1120 -1152 0
v -384 -1216 0
v -416 -1216 0
v -416 -1184 0
v -384 -1184 0
v -384 -1248 0
v -416 -1248 0
v -416 -1216 0
v -384 -1216 0
v -416 -1248 0
v -448 -1248 0
v -448 -1216 0
v -416 -1216 0
v -32 -1280 0
v -64 -1280 0
v -64 -1248 0
v -32 -1248 0
v -64 -1280 0
v -96 -1280 0
v -96 -1248 0
v -64 -1248 0
v -96 -1280 0
v -128 -1280 0
v -128 -1248 0
v -96 -1248 0
v -384 -1280 0
v -416 -1280 0
v -416 -1248 0
v -384 -1248 0
v -416 -1280 0
v -448 -1280 0
v -448 -1248 0
v -416 -1248 0
v -448 -1280 0
v -480 -1280 0
v -480 -1248 0
v -448 -1248 0
v -32 -1312 0
v -64 -1312 0
v -64 -1280 0
v -32 -1280 0
v -64 -1312 0
v -96 -1312 0
v -96 -1280 0
v -64 -1280 0
v -96 -1312 0
v -128 -1312 0
v -128 -1280 0
v -96 -1280 0

# Texture cooridinates (Count = 21)
vt 0.08333334 0.5555556
vt 0.1666667 0.5555556
vt 0.1666667 0.6666666
vt 0.08333334 0.6666666
vt 0.08333334 0.4444444
vt 0.1666667 0.4444444
vt 0.25 0.5555556
vt 0.25 0.6666666
vt 0.25 0.4444444
vt 0.5 0.5555556
vt 0.5833333 0.5555556
vt 0.5833333 0.6666666
vt 0.5 0.6666666
vt 0.5 0.4444444
vt 0.5833333 0.4444444
vt 0.6666667 0.4444444
vt 0.6666667 0.5555556
vt 0.6666667 0.6666666
vt 0 0.5555556
vt 0 0.6666666
vt 0 0.4444444

# Normal
vn 0 0 -1

# Mesh description
g Underground-Cavern_mesh_0003

# Faces
f 1/1/1 2/2/1 3/3/1 4/4/1
f 5/1/1 6/2/1 7/3/1 8/4/1
f 9/1/1 10/2/1 11/3/1 12/4/1
f 13/1/1 14/2/1 15/3/1 16/4/1
f 17/1/1 18/2/1 19/3/1 20/4/1
f 21/1/1 22/2/1 23/3/1 24/4/1
f 25/1/1 26/2/1 27/3/1 28/4/1
f 29/1/1 30/2/1 31/3/1 32/4/1
f 33/1/1 34/2/1 35/3/1 36/4/1
f 37/1/1 38/2/1 39/3/1 40/4/1
f 41/1/1 42/2/1 43/3/1 44/4/1
f 45/1/1 46/2/1 47/3/1 48/4/1
f 49/1/1 50/2/1 51/3/1 52/4/1
f 53/1/1 54/2/1 55/3/1 56/4/1
f 57/1/1 58/2/1 59/3/1 60/4/1
f 61/1/1 62/2/1 63/3/1 64/4/1
f 65/1/1 66/2/1 67/3/1 68/4/1
f 69/1/1 70/2/1 71/3/1 72/4/1
f 73/1/1 74/2/1 75/3/1 76/4/1
f 77/5/1 78/6/1 79/2/1 80/1/1
f 81/5/1 82/6/1 83/2/1 84/1/1
f 85/5/1 86/6/1 87/2/1 88/1/1
f 89/5/1 90/6/1 91/2/1 92/1/1
f 93/5/1 94/6/1 95/2/1 96/1/1
f 97/5/1 98/6/1 99/2/1 100/1/1
f 101/5/1 102/6/1 103/2/1 104/1/1
f 105/5/1 106/6/1 107/2/1 108/1/1
f 109/5/1 110/6/1 111/2/1 112/1/1
f 113/5/1 114/6/1 115/2/1 116/1/1
f 117/5/1 118/6/1 119/2/1 120/1/1
f 121/5/1 122/6/1 123/2/1 124/1/1
f 125/5/1 126/6/1 127/2/1 128/1/1
f 129/5/1 130/6/1 131/2/1 132/1/1
f 133/1/1 134/2/1 135/3/1 136/4/1
f 137/1/1 138/2/1 139/3/1 140/4/1
f 141/1/1 142/2/1 143/3/1 144/4/1
f 145/1/1 146/2/1 147/3/1 148/4/1
f 149/1/1 150/2/1 151/3/1 152/4/1
f 153/1/1 154/2/1 155/3/1 156/4/1
f 157/1/1 158/2/1 159/3/1 160/4/1
f 161/1/1 162/2/1 163/3/1 164/4/1
f 165/1/1 166/2/1 167/3/1 168/4/1
f 169/5/1 170/6/1 171/2/1 172/1/1
f 173/5/1 174/6/1 175/2/1 176/1/1
f 177/5/1 178/6/1 179/2/1 180/1/1
f 181/5/1 182/6/1 183/2/1 184/1/1
f 185/5/1 186/6/1 187/2/1 188/1/1
f 189/1/1 190/2/1 191/3/1 192/4/1
f 193/1/1 194/2/1 195/3/1 196/4/1
f 197/1/1 198/2/1 199/3/1 200/4/1
f 201/1/1 202/2/1 203/3/1 204/4/1
f 205/1/1 206/2/1 207/3/1 208/4/1
f 209/1/1 210/2/1 211/3/1 212/4/1
f 213/2/1 214/7/1 215/8/1 216/3/1
f 217/5/1 218/6/1 219/2/1 220/1/1
f 221/5/1 222/6/1 223/2/1 224/1/1
f 225/5/1 226/6/1 227/2/1 228/1/1
f 229/5/1 230/6/1 231/2/1 232/1/1
f 233/5/1 234/6/1 235/2/1 236/1/1
f 237/5/1 238/6/1 239/2/1 240/1/1
f 241/5/1 242/6/1 243/2/1 244/1/1
f 245/5/1 246/6/1 247/2/1 248/1/1
f 249/5/1 250/6/1 251/2/1 252/1/1
f 253/5/1 254/6/1 255/2/1 256/1/1
f 257/5/1 258/6/1 259/2/1 260/1/1
f 261/5/1 262/6/1 263/2/1 264/1/1
f 265/5/1 266/6/1 267/2/1 268/1/1
f 269/5/1 270/6/1 271/2/1 272/1/1
f 273/5/1 274/6/1 275/2/1 276/1/1
f 277/6/1 278/9/1 279/7/1 280/2/1
f 281/1/1 282/2/1 283/3/1 284/4/1
f 285/5/1 286/6/1 287/2/1 288/1/1
f 289/1/1 290/2/1 291/3/1 292/4/1
f 293/1/1 294/2/1 295/3/1 296/4/1
f 297/1/1 298/2/1 299/3/1 300/4/1
f 301/2/1 302/7/1 303/8/1 304/3/1
f 305/5/1 306/6/1 307/2/1 308/1/1
f 309/5/1 310/6/1 311/2/1 312/1/1
f 313/5/1 314/6/1 315/2/1 316/1/1
f 317/6/1 318/9/1 319/7/1 320/2/1
f 321/10/1 322/11/1 323/12/1 324/13/1
f 325/1/1 326/2/1 327/3/1 328/4/1
f 329/1/1 330/2/1 331/3/1 332/4/1
f 333/2/1 334/7/1 335/8/1 336/3/1
f 337/1/1 338/2/1 339/3/1 340/4/1
f 341/1/1 342/2/1 343/3/1 344/4/1
f 345/1/1 346/2/1 347/3/1 348/4/1
f 349/1/1 350/2/1 351/3/1 352/4/1
f 353/1/1 354/2/1 355/3/1 356/4/1
f 357/1/1 358/2/1 359/3/1 360/4/1
f 361/1/1 362/2/1 363/3/1 364/4/1
f 365/14/1 366/15/1 367/11/1 368/10/1
f 369/14/1 370/15/1 371/11/1 372/10/1
f 373/14/1 374/15/1 375/11/1 376/10/1
f 377/15/1 378/16/1 379/17/1 380/11/1
f 381/5/1 382/6/1 383/2/1 384/1/1
f 385/5/1 386/6/1 387/2/1 388/1/1
f 389/5/1 390/6/1 391/2/1 392/1/1
f 393/5/1 394/6/1 395/2/1 396/1/1
f 397/5/1 398/6/1 399/2/1 400/1/1
f 401/5/1 402/6/1 403/2/1 404/1/1
f 405/5/1 406/6/1 407/2/1 408/1/1
f 409/10/1 410/11/1 411/12/1 412/13/1
f 413/11/1 414/17/1 415/18/1 416/12/1
f 417/14/1 418/15/1 419/11/1 420/10/1
f 421/15/1 422/16/1 423/17/1 424/11/1
f 425/1/1 426/2/1 427/3/1 428/4/1
f 429/1/1 430/2/1 431/3/1 432/4/1
f 433/1/1 434/2/1 435/3/1 436/4/1
f 437/1/1 438/2/1 439/3/1 440/4/1
f 441/1/1 442/2/1 443/3/1 444/4/1
f 445/1/1 446/2/1 447/3/1 448/4/1
f 449/2/1 450/7/1 451/8/1 452/3/1
f 453/5/1 454/6/1 455/2/1 456/1/1
f 457/5/1 458/6/1 459/2/1 460/1/1
f 461/5/1 462/6/1 463/2/1 464/1/1
f 465/5/1 466/6/1 467/2/1 468/1/1
f 469/5/1 470/6/1 471/2/1 472/1/1
f 473/5/1 474/6/1 475/2/1 476/1/1
f 477/6/1 478/9/1 479/7/1 480/2/1
f 481/1/1 482/2/1 483/3/1 484/4/1
f 485/1/1 486/2/1 487/3/1 488/4/1
f 489/2/1 490/7/1 491/8/1 492/3/1
f 493/5/1 494/6/1 495/2/1 496/1/1
f 497/5/1 498/6/1 499/2/1 500/1/1
f 501/6/1 502/9/1 503/7/1 504/2/1
f 505/10/1 506/11/1 507/12/1 508/13/1
f 509/10/1 510/11/1 511/12/1 512/13/1
f 513/11/1 514/17/1 515/18/1 516/12/1
f 517/14/1 518/15/1 519/11/1 520/10/1
f 521/14/1 522/15/1 523/11/1 524/10/1
f 525/15/1 526/16/1 527/17/1 528/11/1
f 529/10/1 530/11/1 531/12/1 532/13/1
f 533/11/1 534/17/1 535/18/1 536/12/1
f 537/14/1 538/15/1 539/11/1 540/10/1
f 541/15/1 542/16/1 543/17/1 544/11/1
f 545/19/1 546/1/1 547/4/1 548/20/1
f 549/1/1 550/2/1 551/3/1 552/4/1
f 553/1/1 554/2/1 555/3/1 556/4/1
f 557/1/1 558/2/1 559/3/1 560/4/1
f 561/1/1 562/2/1 563/3/1 564/4/1
f 565/2/1 566/7/1 567/8/1 568/3/1
f 569/1/1 570/2/1 571/3/1 572/4/1
f 573/1/1 574/2/1 575/3/1 576/4/1
f 577/1/1 578/2/1 579/3/1 580/4/1
f 581/1/1 582/2/1 583/3/1 584/4/1
f 585/21/1 586/5/1 587/1/1 588/19/1
f 589/5/1 590/6/1 591/2/1 592/1/1
f 593/5/1 594/6/1 595/2/1 596/1/1
f 597/5/1 598/6/1 599/2/1 600/1/1
f 601/5/1 602/6/1 603/2/1 604/1/1
f 605/6/1 606/9/1 607/7/1 608/2/1
f 609/5/1 610/6/1 611/2/1 612/1/1
f 613/19/1 614/1/1 615/4/1 616/20/1
f 617/1/1 618/2/1 619/3/1 620/4/1
f 621/10/1 622/11/1 623/12/1 624/13/1
f 625/10/1 626/11/1 627/12/1 628/13/1
f 629/11/1 630/17/1 631/18/1 632/12/1
f 633/21/1 634/5/1 635/1/1 636/19/1
f 637/5/1 638/6/1 639/2/1 640/1/1
f 641/5/1 642/6/1 643/2/1 644/1/1
f 645/14/1 646/15/1 647/11/1 648/10/1
f 649/14/1 650/15/1 651/11/1 652/10/1
f 653/15/1 654/16/1 655/17/1 656/11/1

