# Tiled2Unity generated file. Do not modify by hand.
# Wavefront file for 'Underground-Cavern_mesh_0007.obj'

# Vertices (Count = 144)
v -1184 -224 0
v -1216 -224 0
v -1216 -192 0
v -1184 -192 0
v -1216 -224 0
v -1248 -224 0
v -1248 -192 0
v -1216 -192 0
v -1376 -224 0
v -1408 -224 0
v -1408 -192 0
v -1376 -192 0
v -1408 -224 0
v -1440 -224 0
v -1440 -192 0
v -1408 -192 0
v -576 -288 0
v -608 -288 0
v -608 -256 0
v -576 -256 0
v -608 -288 0
v -640 -288 0
v -640 -256 0
v -608 -256 0
v -896 -288 0
v -928 -288 0
v -928 -256 0
v -896 -256 0
v -928 -288 0
v -960 -288 0
v -960 -256 0
v -928 -256 0
v -992 -288 0
v -1024 -288 0
v -1024 -256 0
v -992 -256 0
v -1024 -288 0
v -1056 -288 0
v -1056 -256 0
v -1024 -256 0
v -352 -544 0
v -384 -544 0
v -384 -512 0
v -352 -512 0
v -384 -544 0
v -416 -544 0
v -416 -512 0
v -384 -512 0
v -1216 -576 0
v -1248 -576 0
v -1248 -544 0
v -1216 -544 0
v -1248 -576 0
v -1280 -576 0
v -1280 -544 0
v -1248 -544 0
v -256 -736 0
v -288 -736 0
v -288 -704 0
v -256 -704 0
v -288 -736 0
v -320 -736 0
v -320 -704 0
v -288 -704 0
v -896 -736 0
v -928 -736 0
v -928 -704 0
v -896 -704 0
v -928 -736 0
v -960 -736 0
v -960 -704 0
v -928 -704 0
v -992 -736 0
v -1024 -736 0
v -1024 -704 0
v -992 -704 0
v -1024 -736 0
v -1056 -736 0
v -1056 -704 0
v -1024 -704 0
v -736 -864 0
v -768 -864 0
v -768 -832 0
v -736 -832 0
v -768 -864 0
v -800 -864 0
v -800 -832 0
v -768 -832 0
v -1152 -896 0
v -1184 -896 0
v -1184 -864 0
v -1152 -864 0
v -1184 -896 0
v -1216 -896 0
v -1216 -864 0
v -1184 -864 0
v -128 -960 0
v -160 -960 0
v -160 -928 0
v -128 -928 0
v -160 -960 0
v -192 -960 0
v -192 -928 0
v -160 -928 0
v -96 -1120 0
v -128 -1120 0
v -128 -1088 0
v -96 -1088 0
v -128 -1120 0
v -160 -1120 0
v -160 -1088 0
v -128 -1088 0
v -1024 -1152 0
v -1056 -1152 0
v -1056 -1120 0
v -1024 -1120 0
v -1056 -1152 0
v -1088 -1152 0
v -1088 -1120 0
v -1056 -1120 0
v -320 -1184 0
v -352 -1184 0
v -352 -1152 0
v -320 -1152 0
v -352 -1184 0
v -384 -1184 0
v -384 -1152 0
v -352 -1152 0
v -384 -1248 0
v -416 -1248 0
v -416 -1216 0
v -384 -1216 0
v -416 -1248 0
v -448 -1248 0
v -448 -1216 0
v -416 -1216 0
v -32 -1280 0
v -64 -1280 0
v -64 -1248 0
v -32 -1248 0
v -64 -1280 0
v -96 -1280 0
v -96 -1248 0
v -64 -1248 0

# Texture cooridinates (Count = 6)
vt 0 0.75
vt 0.2 0.75
vt 0.2 1
vt 0 1
vt 0.4 0.75
vt 0.4 1

# Normal
vn 0 0 -1

# Mesh description
g Underground-Cavern_mesh_0007

# Faces
f 1/1/1 2/2/1 3/3/1 4/4/1
f 5/2/1 6/5/1 7/6/1 8/3/1
f 9/1/1 10/2/1 11/3/1 12/4/1
f 13/2/1 14/5/1 15/6/1 16/3/1
f 17/1/1 18/2/1 19/3/1 20/4/1
f 21/2/1 22/5/1 23/6/1 24/3/1
f 25/1/1 26/2/1 27/3/1 28/4/1
f 29/2/1 30/5/1 31/6/1 32/3/1
f 33/1/1 34/2/1 35/3/1 36/4/1
f 37/2/1 38/5/1 39/6/1 40/3/1
f 41/1/1 42/2/1 43/3/1 44/4/1
f 45/2/1 46/5/1 47/6/1 48/3/1
f 49/1/1 50/2/1 51/3/1 52/4/1
f 53/2/1 54/5/1 55/6/1 56/3/1
f 57/1/1 58/2/1 59/3/1 60/4/1
f 61/2/1 62/5/1 63/6/1 64/3/1
f 65/1/1 66/2/1 67/3/1 68/4/1
f 69/2/1 70/5/1 71/6/1 72/3/1
f 73/1/1 74/2/1 75/3/1 76/4/1
f 77/2/1 78/5/1 79/6/1 80/3/1
f 81/1/1 82/2/1 83/3/1 84/4/1
f 85/2/1 86/5/1 87/6/1 88/3/1
f 89/1/1 90/2/1 91/3/1 92/4/1
f 93/2/1 94/5/1 95/6/1 96/3/1
f 97/1/1 98/2/1 99/3/1 100/4/1
f 101/2/1 102/5/1 103/6/1 104/3/1
f 105/1/1 106/2/1 107/3/1 108/4/1
f 109/2/1 110/5/1 111/6/1 112/3/1
f 113/1/1 114/2/1 115/3/1 116/4/1
f 117/2/1 118/5/1 119/6/1 120/3/1
f 121/1/1 122/2/1 123/3/1 124/4/1
f 125/2/1 126/5/1 127/6/1 128/3/1
f 129/1/1 130/2/1 131/3/1 132/4/1
f 133/2/1 134/5/1 135/6/1 136/3/1
f 137/1/1 138/2/1 139/3/1 140/4/1
f 141/2/1 142/5/1 143/6/1 144/3/1

