# Tiled2Unity generated file. Do not modify by hand.
# Wavefront file for 'Underground-Cavern_mesh_0005.obj'

# Vertices (Count = 792)
v -23 -3 0
v -24 -3 0
v -24 -2 0
v -23 -2 0
v -24 -3 0
v -25 -3 0
v -25 -2 0
v -24 -2 0
v -25 -3 0
v -26 -3 0
v -26 -2 0
v -25 -2 0
v -26 -3 0
v -27 -3 0
v -27 -2 0
v -26 -2 0
v -27 -3 0
v -28 -3 0
v -28 -2 0
v -27 -2 0
v -28 -3 0
v -29 -3 0
v -29 -2 0
v -28 -2 0
v -29 -3 0
v -30 -3 0
v -30 -2 0
v -29 -2 0
v -29 -4 0
v -30 -4 0
v -30 -3 0
v -29 -3 0
v -30 -4 0
v -31 -4 0
v -31 -3 0
v -30 -3 0
v -33 -4 0
v -34 -4 0
v -34 -3 0
v -33 -3 0
v -34 -4 0
v -35 -4 0
v -35 -3 0
v -34 -3 0
v -35 -4 0
v -36 -4 0
v -36 -3 0
v -35 -3 0
v -36 -4 0
v -37 -4 0
v -37 -3 0
v -36 -3 0
v -37 -4 0
v -38 -4 0
v -38 -3 0
v -37 -3 0
v -42 -4 0
v -43 -4 0
v -43 -3 0
v -42 -3 0
v -43 -4 0
v -44 -4 0
v -44 -3 0
v -43 -3 0
v -33 -5 0
v -34 -5 0
v -34 -4 0
v -33 -4 0
v -34 -5 0
v -35 -5 0
v -35 -4 0
v -34 -4 0
v -42 -5 0
v -43 -5 0
v -43 -4 0
v -42 -4 0
v -33 -6 0
v -34 -6 0
v -34 -5 0
v -33 -5 0
v -17 -7 0
v -18 -7 0
v -18 -6 0
v -17 -6 0
v -18 -7 0
v -19 -7 0
v -19 -6 0
v -18 -6 0
v -19 -7 0
v -20 -7 0
v -20 -6 0
v -19 -6 0
v -20 -7 0
v -21 -7 0
v -21 -6 0
v -20 -6 0
v -21 -7 0
v -22 -7 0
v -22 -6 0
v -21 -6 0
v -22 -7 0
v -23 -7 0
v -23 -6 0
v -22 -6 0
v -9 -8 0
v -10 -8 0
v -10 -7 0
v -9 -7 0
v -10 -8 0
v -11 -8 0
v -11 -7 0
v -10 -7 0
v -9 -9 0
v -10 -9 0
v -10 -8 0
v -9 -8 0
v -12 -9 0
v -13 -9 0
v -13 -8 0
v -12 -8 0
v -13 -9 0
v -14 -9 0
v -14 -8 0
v -13 -8 0
v -8 -10 0
v -9 -10 0
v -9 -9 0
v -8 -9 0
v -9 -10 0
v -10 -10 0
v -10 -9 0
v -9 -9 0
v -25 -10 0
v -26 -10 0
v -26 -9 0
v -25 -9 0
v -42 -10 0
v -43 -10 0
v -43 -9 0
v -42 -9 0
v -43 -10 0
v -44 -10 0
v -44 -9 0
v -43 -9 0
v -46 -10 0
v -47 -10 0
v -47 -9 0
v -46 -9 0
v -8 -11 0
v -9 -11 0
v -9 -10 0
v -8 -10 0
v -13 -11 0
v -14 -11 0
v -14 -10 0
v -13 -10 0
v -43 -11 0
v -44 -11 0
v -44 -10 0
v -43 -10 0
v -44 -11 0
v -45 -11 0
v -45 -10 0
v -44 -10 0
v -7 -12 0
v -8 -12 0
v -8 -11 0
v -7 -11 0
v -8 -12 0
v -9 -12 0
v -9 -11 0
v -8 -11 0
v -44 -12 0
v -45 -12 0
v -45 -11 0
v -44 -11 0
v -16 -13 0
v -17 -13 0
v -17 -12 0
v -16 -12 0
v -17 -13 0
v -18 -13 0
v -18 -12 0
v -17 -12 0
v -18 -13 0
v -19 -13 0
v -19 -12 0
v -18 -12 0
v -27 -13 0
v -28 -13 0
v -28 -12 0
v -27 -12 0
v -28 -13 0
v -29 -13 0
v -29 -12 0
v -28 -12 0
v -18 -14 0
v -19 -14 0
v -19 -13 0
v -18 -13 0
v -32 -14 0
v -33 -14 0
v -33 -13 0
v -32 -13 0
v -35 -14 0
v -36 -14 0
v -36 -13 0
v -35 -13 0
v -37 -14 0
v -38 -14 0
v -38 -13 0
v -37 -13 0
v -38 -14 0
v -39 -14 0
v -39 -13 0
v -38 -13 0
v -39 -14 0
v -40 -14 0
v -40 -13 0
v -39 -13 0
v -25 -15 0
v -26 -15 0
v -26 -14 0
v -25 -14 0
v -30 -15 0
v -31 -15 0
v -31 -14 0
v -30 -14 0
v -31 -15 0
v -32 -15 0
v -32 -14 0
v -31 -14 0
v -32 -15 0
v -33 -15 0
v -33 -14 0
v -32 -14 0
v -15 -16 0
v -16 -16 0
v -16 -15 0
v -15 -15 0
v -18 -16 0
v -19 -16 0
v -19 -15 0
v -18 -15 0
v -24 -16 0
v -25 -16 0
v -25 -15 0
v -24 -15 0
v -25 -16 0
v -26 -16 0
v -26 -15 0
v -25 -15 0
v -30 -16 0
v -31 -16 0
v -31 -15 0
v -30 -15 0
v -39 -16 0
v -40 -16 0
v -40 -15 0
v -39 -15 0
v -2 -17 0
v -3 -17 0
v -3 -16 0
v -2 -16 0
v -9 -17 0
v -10 -17 0
v -10 -16 0
v -9 -16 0
v -24 -17 0
v -25 -17 0
v -25 -16 0
v -24 -16 0
v -30 -17 0
v -31 -17 0
v -31 -16 0
v -30 -16 0
v -31 -17 0
v -32 -17 0
v -32 -16 0
v -31 -16 0
v -32 -17 0
v -33 -17 0
v -33 -16 0
v -32 -16 0
v -35 -17 0
v -36 -17 0
v -36 -16 0
v -35 -16 0
v -9 -18 0
v -10 -18 0
v -10 -17 0
v -9 -17 0
v -11 -18 0
v -12 -18 0
v -12 -17 0
v -11 -17 0
v -15 -18 0
v -16 -18 0
v -16 -17 0
v -15 -17 0
v -21 -18 0
v -22 -18 0
v -22 -17 0
v -21 -17 0
v -26 -18 0
v -27 -18 0
v -27 -17 0
v -26 -17 0
v -9 -19 0
v -10 -19 0
v -10 -18 0
v -9 -18 0
v -9 -20 0
v -10 -20 0
v -10 -19 0
v -9 -19 0
v -38 -20 0
v -39 -20 0
v -39 -19 0
v -38 -19 0
v -45 -20 0
v -46 -20 0
v -46 -19 0
v -45 -19 0
v -7 -21 0
v -8 -21 0
v -8 -20 0
v -7 -20 0
v -22 -21 0
v -23 -21 0
v -23 -20 0
v -22 -20 0
v -28 -21 0
v -29 -21 0
v -29 -20 0
v -28 -20 0
v -29 -21 0
v -30 -21 0
v -30 -20 0
v -29 -20 0
v -30 -21 0
v -31 -21 0
v -31 -20 0
v -30 -20 0
v -38 -21 0
v -39 -21 0
v -39 -20 0
v -38 -20 0
v -44 -21 0
v -45 -21 0
v -45 -20 0
v -44 -20 0
v -45 -21 0
v -46 -21 0
v -46 -20 0
v -45 -20 0
v -6 -22 0
v -7 -22 0
v -7 -21 0
v -6 -21 0
v -7 -22 0
v -8 -22 0
v -8 -21 0
v -7 -21 0
v -14 -22 0
v -15 -22 0
v -15 -21 0
v -14 -21 0
v -15 -22 0
v -16 -22 0
v -16 -21 0
v -15 -21 0
v -44 -22 0
v -45 -22 0
v -45 -21 0
v -44 -21 0
v -2 -23 0
v -3 -23 0
v -3 -22 0
v -2 -22 0
v -3 -23 0
v -4 -23 0
v -4 -22 0
v -3 -22 0
v -6 -23 0
v -7 -23 0
v -7 -22 0
v -6 -22 0
v -17 -24 0
v -18 -24 0
v -18 -23 0
v -17 -23 0
v -22 -25 0
v -23 -25 0
v -23 -24 0
v -22 -24 0
v -23 -25 0
v -24 -25 0
v -24 -24 0
v -23 -24 0
v -24 -25 0
v -25 -25 0
v -25 -24 0
v -24 -24 0
v -25 -25 0
v -26 -25 0
v -26 -24 0
v -25 -24 0
v -35 -25 0
v -36 -25 0
v -36 -24 0
v -35 -24 0
v -36 -25 0
v -37 -25 0
v -37 -24 0
v -36 -24 0
v -38 -25 0
v -39 -25 0
v -39 -24 0
v -38 -24 0
v -46 -25 0
v -47 -25 0
v -47 -24 0
v -46 -24 0
v -5 -26 0
v -6 -26 0
v -6 -25 0
v -5 -25 0
v -10 -26 0
v -11 -26 0
v -11 -25 0
v -10 -25 0
v -11 -26 0
v -12 -26 0
v -12 -25 0
v -11 -25 0
v -16 -26 0
v -17 -26 0
v -17 -25 0
v -16 -25 0
v -35 -26 0
v -36 -26 0
v -36 -25 0
v -35 -25 0
v -46 -26 0
v -47 -26 0
v -47 -25 0
v -46 -25 0
v -5 -27 0
v -6 -27 0
v -6 -26 0
v -5 -26 0
v -7 -27 0
v -8 -27 0
v -8 -26 0
v -7 -26 0
v -30 -27 0
v -31 -27 0
v -31 -26 0
v -30 -26 0
v -4 -28 0
v -5 -28 0
v -5 -27 0
v -4 -27 0
v -5 -28 0
v -6 -28 0
v -6 -27 0
v -5 -27 0
v -11 -29 0
v -12 -29 0
v -12 -28 0
v -11 -28 0
v -24 -29 0
v -25 -29 0
v -25 -28 0
v -24 -28 0
v -25 -29 0
v -26 -29 0
v -26 -28 0
v -25 -28 0
v -3 -30 0
v -4 -30 0
v -4 -29 0
v -3 -29 0
v -11 -30 0
v -12 -30 0
v -12 -29 0
v -11 -29 0
v -17 -30 0
v -18 -30 0
v -18 -29 0
v -17 -29 0
v -24 -30 0
v -25 -30 0
v -25 -29 0
v -24 -29 0
v -28 -30 0
v -29 -30 0
v -29 -29 0
v -28 -29 0
v -3 -31 0
v -4 -31 0
v -4 -30 0
v -3 -30 0
v -11 -31 0
v -12 -31 0
v -12 -30 0
v -11 -30 0
v -24 -31 0
v -25 -31 0
v -25 -30 0
v -24 -30 0
v -28 -31 0
v -29 -31 0
v -29 -30 0
v -28 -30 0
v -31 -31 0
v -32 -31 0
v -32 -30 0
v -31 -30 0
v -22 -32 0
v -23 -32 0
v -23 -31 0
v -22 -31 0
v -2 -33 0
v -3 -33 0
v -3 -32 0
v -2 -32 0
v -3 -33 0
v -4 -33 0
v -4 -32 0
v -3 -32 0
v -22 -33 0
v -23 -33 0
v -23 -32 0
v -22 -32 0
v -43 -33 0
v -44 -33 0
v -44 -32 0
v -43 -32 0
v -44 -33 0
v -45 -33 0
v -45 -32 0
v -44 -32 0
v -2 -34 0
v -3 -34 0
v -3 -33 0
v -2 -33 0
v -9 -34 0
v -10 -34 0
v -10 -33 0
v -9 -33 0
v -18 -34 0
v -19 -34 0
v -19 -33 0
v -18 -33 0
v -31 -34 0
v -32 -34 0
v -32 -33 0
v -31 -33 0
v -43 -34 0
v -44 -34 0
v -44 -33 0
v -43 -33 0
v -2 -35 0
v -3 -35 0
v -3 -34 0
v -2 -34 0
v -9 -35 0
v -10 -35 0
v -10 -34 0
v -9 -34 0
v -10 -35 0
v -11 -35 0
v -11 -34 0
v -10 -34 0
v -22 -35 0
v -23 -35 0
v -23 -34 0
v -22 -34 0
v -43 -35 0
v -44 -35 0
v -44 -34 0
v -43 -34 0
v -44 -35 0
v -45 -35 0
v -45 -34 0
v -44 -34 0
v -22 -36 0
v -23 -36 0
v -23 -35 0
v -22 -35 0
v -44 -36 0
v -45 -36 0
v -45 -35 0
v -44 -35 0
v -13 -37 0
v -14 -37 0
v -14 -36 0
v -13 -36 0
v -14 -37 0
v -15 -37 0
v -15 -36 0
v -14 -36 0
v -23 -37 0
v -24 -37 0
v -24 -36 0
v -23 -36 0
v -4 -38 0
v -5 -38 0
v -5 -37 0
v -4 -37 0
v -14 -38 0
v -15 -38 0
v -15 -37 0
v -14 -37 0
v -15 -38 0
v -16 -38 0
v -16 -37 0
v -15 -37 0
v -23 -38 0
v -24 -38 0
v -24 -37 0
v -23 -37 0
v -4 -39 0
v -5 -39 0
v -5 -38 0
v -4 -38 0
v -23 -39 0
v -24 -39 0
v -24 -38 0
v -23 -38 0
v -36 -39 0
v -37 -39 0
v -37 -38 0
v -36 -38 0
v -44 -39 0
v -45 -39 0
v -45 -38 0
v -44 -38 0
v 0 -40 0
v -1 -40 0
v -1 -39 0
v 0 -39 0
v -17 -40 0
v -18 -40 0
v -18 -39 0
v -17 -39 0
v 0 -41 0
v -1 -41 0
v -1 -40 0
v 0 -40 0
v -13 -41 0
v -14 -41 0
v -14 -40 0
v -13 -40 0
v -17 -41 0
v -18 -41 0
v -18 -40 0
v -17 -40 0
v -18 -41 0
v -19 -41 0
v -19 -40 0
v -18 -40 0
v -39 -41 0
v -40 -41 0
v -40 -40 0
v -39 -40 0
v 0 -42 0
v -1 -42 0
v -1 -41 0
v 0 -41 0
v -2 -42 0
v -3 -42 0
v -3 -41 0
v -2 -41 0
v -7 -42 0
v -8 -42 0
v -8 -41 0
v -7 -41 0
v -13 -42 0
v -14 -42 0
v -14 -41 0
v -13 -41 0
v -18 -42 0
v -19 -42 0
v -19 -41 0
v -18 -41 0
v -30 -42 0
v -31 -42 0
v -31 -41 0
v -30 -41 0
v -38 -42 0
v -39 -42 0
v -39 -41 0
v -38 -41 0
v -39 -42 0
v -40 -42 0
v -40 -41 0
v -39 -41 0
v -2 -43 0
v -3 -43 0
v -3 -42 0
v -2 -42 0
v -3 -43 0
v -4 -43 0
v -4 -42 0
v -3 -42 0
v -18 -43 0
v -19 -43 0
v -19 -42 0
v -18 -42 0
v -26 -43 0
v -27 -43 0
v -27 -42 0
v -26 -42 0
v -27 -43 0
v -28 -43 0
v -28 -42 0
v -27 -42 0
v -28 -43 0
v -29 -43 0
v -29 -42 0
v -28 -42 0
v -10 -44 0
v -11 -44 0
v -11 -43 0
v -10 -43 0
v -18 -44 0
v -19 -44 0
v -19 -43 0
v -18 -43 0
v -23 -44 0
v -24 -44 0
v -24 -43 0
v -23 -43 0
v -34 -44 0
v -35 -44 0
v -35 -43 0
v -34 -43 0
v -23 -45 0
v -24 -45 0
v -24 -44 0
v -23 -44 0
v -24 -45 0
v -25 -45 0
v -25 -44 0
v -24 -44 0
v -37 -45 0
v -38 -45 0
v -38 -44 0
v -37 -44 0
v -36 -46 0
v -37 -46 0
v -37 -45 0
v -36 -45 0
v -37 -46 0
v -38 -46 0
v -38 -45 0
v -37 -45 0
v -6 -47 0
v -7 -47 0
v -7 -46 0
v -6 -46 0
v -7 -47 0
v -8 -47 0
v -8 -46 0
v -7 -46 0
v -8 -47 0
v -9 -47 0
v -9 -46 0
v -8 -46 0
v -9 -47 0
v -10 -47 0
v -10 -46 0
v -9 -46 0
v -10 -47 0
v -11 -47 0
v -11 -46 0
v -10 -46 0
v -34 -47 0
v -35 -47 0
v -35 -46 0
v -34 -46 0
v -35 -47 0
v -36 -47 0
v -36 -46 0
v -35 -46 0
v -15 -48 0
v -16 -48 0
v -16 -47 0
v -15 -47 0

# Texture cooridinates (Count = 17)
vt 0.1666667 0
vt 0.25 0
vt 0.25 0.1111111
vt 0.1666667 0.1111111
vt 0.08333334 0
vt 0.08333334 0.1111111
vt 0.9166667 0.1111111
vt 1 0.1111111
vt 1 0.2222222
vt 0.9166667 0.2222222
vt 0 0
vt 0 0.1111111
vt 0.8333333 0.1111111
vt 0.8333333 0.2222222
vt 0.75 0.2222222
vt 0.8333333 0.3333333
vt 0.75 0.3333333

# Normal
vn 0 0 -1

# Mesh description
g Underground-Cavern_mesh_0005

# Faces
f 1/1/1 2/2/1 3/3/1 4/4/1
f 5/1/1 6/2/1 7/3/1 8/4/1
f 9/1/1 10/2/1 11/3/1 12/4/1
f 13/1/1 14/2/1 15/3/1 16/4/1
f 17/1/1 18/2/1 19/3/1 20/4/1
f 21/1/1 22/2/1 23/3/1 24/4/1
f 25/1/1 26/2/1 27/3/1 28/4/1
f 29/1/1 30/2/1 31/3/1 32/4/1
f 33/1/1 34/2/1 35/3/1 36/4/1
f 37/5/1 38/1/1 39/4/1 40/6/1
f 41/5/1 42/1/1 43/4/1 44/6/1
f 45/5/1 46/1/1 47/4/1 48/6/1
f 49/5/1 50/1/1 51/4/1 52/6/1
f 53/5/1 54/1/1 55/4/1 56/6/1
f 57/5/1 58/1/1 59/4/1 60/6/1
f 61/5/1 62/1/1 63/4/1 64/6/1
f 65/5/1 66/1/1 67/4/1 68/6/1
f 69/5/1 70/1/1 71/4/1 72/6/1
f 73/5/1 74/1/1 75/4/1 76/6/1
f 77/5/1 78/1/1 79/4/1 80/6/1
f 81/5/1 82/1/1 83/4/1 84/6/1
f 85/5/1 86/1/1 87/4/1 88/6/1
f 89/5/1 90/1/1 91/4/1 92/6/1
f 93/5/1 94/1/1 95/4/1 96/6/1
f 97/5/1 98/1/1 99/4/1 100/6/1
f 101/5/1 102/1/1 103/4/1 104/6/1
f 105/1/1 106/2/1 107/3/1 108/4/1
f 109/1/1 110/2/1 111/3/1 112/4/1
f 113/1/1 114/2/1 115/3/1 116/4/1
f 117/5/1 118/1/1 119/4/1 120/6/1
f 121/5/1 122/1/1 123/4/1 124/6/1
f 125/1/1 126/2/1 127/3/1 128/4/1
f 129/1/1 130/2/1 131/3/1 132/4/1
f 133/7/1 134/8/1 135/9/1 136/10/1
f 137/11/1 138/5/1 139/6/1 140/12/1
f 141/11/1 142/5/1 143/6/1 144/12/1
f 145/13/1 146/7/1 147/10/1 148/14/1
f 149/1/1 150/2/1 151/3/1 152/4/1
f 153/5/1 154/1/1 155/4/1 156/6/1
f 157/11/1 158/5/1 159/6/1 160/12/1
f 161/11/1 162/5/1 163/6/1 164/12/1
f 165/1/1 166/2/1 167/3/1 168/4/1
f 169/1/1 170/2/1 171/3/1 172/4/1
f 173/11/1 174/5/1 175/6/1 176/12/1
f 177/11/1 178/5/1 179/6/1 180/12/1
f 181/11/1 182/5/1 183/6/1 184/12/1
f 185/11/1 186/5/1 187/6/1 188/12/1
f 189/5/1 190/1/1 191/4/1 192/6/1
f 193/5/1 194/1/1 195/4/1 196/6/1
f 197/11/1 198/5/1 199/6/1 200/12/1
f 201/1/1 202/2/1 203/3/1 204/4/1
f 205/5/1 206/1/1 207/4/1 208/6/1
f 209/5/1 210/1/1 211/4/1 212/6/1
f 213/5/1 214/1/1 215/4/1 216/6/1
f 217/5/1 218/1/1 219/4/1 220/6/1
f 221/1/1 222/2/1 223/3/1 224/4/1
f 225/1/1 226/2/1 227/3/1 228/4/1
f 229/1/1 230/2/1 231/3/1 232/4/1
f 233/1/1 234/2/1 235/3/1 236/4/1
f 237/11/1 238/5/1 239/6/1 240/12/1
f 241/11/1 242/5/1 243/6/1 244/12/1
f 245/1/1 246/2/1 247/3/1 248/4/1
f 249/1/1 250/2/1 251/3/1 252/4/1
f 253/1/1 254/2/1 255/3/1 256/4/1
f 257/5/1 258/1/1 259/4/1 260/6/1
f 261/7/1 262/8/1 263/9/1 264/10/1
f 265/5/1 266/1/1 267/4/1 268/6/1
f 269/1/1 270/2/1 271/3/1 272/4/1
f 273/5/1 274/1/1 275/4/1 276/6/1
f 277/5/1 278/1/1 279/4/1 280/6/1
f 281/5/1 282/1/1 283/4/1 284/6/1
f 285/5/1 286/1/1 287/4/1 288/6/1
f 289/5/1 290/1/1 291/4/1 292/6/1
f 293/11/1 294/5/1 295/6/1 296/12/1
f 297/13/1 298/7/1 299/10/1 300/14/1
f 301/5/1 302/1/1 303/4/1 304/6/1
f 305/7/1 306/8/1 307/9/1 308/10/1
f 309/5/1 310/1/1 311/4/1 312/6/1
f 313/5/1 314/1/1 315/4/1 316/6/1
f 317/11/1 318/5/1 319/6/1 320/12/1
f 321/5/1 322/1/1 323/4/1 324/6/1
f 325/5/1 326/1/1 327/4/1 328/6/1
f 329/5/1 330/1/1 331/4/1 332/6/1
f 333/5/1 334/1/1 335/4/1 336/6/1
f 337/5/1 338/1/1 339/4/1 340/6/1
f 341/5/1 342/1/1 343/4/1 344/6/1
f 345/11/1 346/5/1 347/6/1 348/12/1
f 349/5/1 350/1/1 351/4/1 352/6/1
f 353/5/1 354/1/1 355/4/1 356/6/1
f 357/5/1 358/1/1 359/4/1 360/6/1
f 361/5/1 362/1/1 363/4/1 364/6/1
f 365/5/1 366/1/1 367/4/1 368/6/1
f 369/5/1 370/1/1 371/4/1 372/6/1
f 373/5/1 374/1/1 375/4/1 376/6/1
f 377/7/1 378/8/1 379/9/1 380/10/1
f 381/7/1 382/8/1 383/9/1 384/10/1
f 385/5/1 386/1/1 387/4/1 388/6/1
f 389/5/1 390/1/1 391/4/1 392/6/1
f 393/5/1 394/1/1 395/4/1 396/6/1
f 397/5/1 398/1/1 399/4/1 400/6/1
f 401/5/1 402/1/1 403/4/1 404/6/1
f 405/5/1 406/1/1 407/4/1 408/6/1
f 409/5/1 410/1/1 411/4/1 412/6/1
f 413/5/1 414/1/1 415/4/1 416/6/1
f 417/7/1 418/8/1 419/9/1 420/10/1
f 421/1/1 422/2/1 423/3/1 424/4/1
f 425/5/1 426/1/1 427/4/1 428/6/1
f 429/5/1 430/1/1 431/4/1 432/6/1
f 433/5/1 434/1/1 435/4/1 436/6/1
f 437/5/1 438/1/1 439/4/1 440/6/1
f 441/5/1 442/1/1 443/4/1 444/6/1
f 445/1/1 446/2/1 447/3/1 448/4/1
f 449/5/1 450/1/1 451/4/1 452/6/1
f 453/7/1 454/8/1 455/9/1 456/10/1
f 457/15/1 458/14/1 459/16/1 460/17/1
f 461/5/1 462/1/1 463/4/1 464/6/1
f 465/5/1 466/1/1 467/4/1 468/6/1
f 469/1/1 470/2/1 471/3/1 472/4/1
f 473/11/1 474/5/1 475/6/1 476/12/1
f 477/11/1 478/5/1 479/6/1 480/12/1
f 481/5/1 482/1/1 483/4/1 484/6/1
f 485/1/1 486/2/1 487/3/1 488/4/1
f 489/5/1 490/1/1 491/4/1 492/6/1
f 493/11/1 494/5/1 495/6/1 496/12/1
f 497/7/1 498/8/1 499/9/1 500/10/1
f 501/5/1 502/1/1 503/4/1 504/6/1
f 505/1/1 506/2/1 507/3/1 508/4/1
f 509/11/1 510/5/1 511/6/1 512/12/1
f 513/7/1 514/8/1 515/9/1 516/10/1
f 517/5/1 518/1/1 519/4/1 520/6/1
f 521/5/1 522/1/1 523/4/1 524/6/1
f 525/1/1 526/2/1 527/3/1 528/4/1
f 529/1/1 530/2/1 531/3/1 532/4/1
f 533/5/1 534/1/1 535/4/1 536/6/1
f 537/5/1 538/1/1 539/4/1 540/6/1
f 541/5/1 542/1/1 543/4/1 544/6/1
f 545/1/1 546/2/1 547/3/1 548/4/1
f 549/5/1 550/1/1 551/4/1 552/6/1
f 553/7/1 554/8/1 555/9/1 556/10/1
f 557/5/1 558/1/1 559/4/1 560/6/1
f 561/5/1 562/1/1 563/4/1 564/6/1
f 565/1/1 566/2/1 567/3/1 568/4/1
f 569/5/1 570/1/1 571/4/1 572/6/1
f 573/5/1 574/1/1 575/4/1 576/6/1
f 577/5/1 578/1/1 579/4/1 580/6/1
f 581/5/1 582/1/1 583/4/1 584/6/1
f 585/5/1 586/1/1 587/4/1 588/6/1
f 589/5/1 590/1/1 591/4/1 592/6/1
f 593/5/1 594/1/1 595/4/1 596/6/1
f 597/5/1 598/1/1 599/4/1 600/6/1
f 601/5/1 602/1/1 603/4/1 604/6/1
f 605/5/1 606/1/1 607/4/1 608/6/1
f 609/11/1 610/5/1 611/6/1 612/12/1
f 613/5/1 614/1/1 615/4/1 616/6/1
f 617/5/1 618/1/1 619/4/1 620/6/1
f 621/5/1 622/1/1 623/4/1 624/6/1
f 625/11/1 626/5/1 627/6/1 628/12/1
f 629/5/1 630/1/1 631/4/1 632/6/1
f 633/13/1 634/7/1 635/10/1 636/14/1
f 637/7/1 638/8/1 639/9/1 640/10/1
f 641/5/1 642/1/1 643/4/1 644/6/1
f 645/1/1 646/2/1 647/3/1 648/4/1
f 649/5/1 650/1/1 651/4/1 652/6/1
f 653/11/1 654/5/1 655/6/1 656/12/1
f 657/1/1 658/2/1 659/3/1 660/4/1
f 661/1/1 662/2/1 663/3/1 664/4/1
f 665/11/1 666/5/1 667/6/1 668/12/1
f 669/5/1 670/1/1 671/4/1 672/6/1
f 673/11/1 674/5/1 675/6/1 676/12/1
f 677/15/1 678/14/1 679/16/1 680/17/1
f 681/11/1 682/5/1 683/6/1 684/12/1
f 685/1/1 686/2/1 687/3/1 688/4/1
f 689/7/1 690/8/1 691/9/1 692/10/1
f 693/11/1 694/5/1 695/6/1 696/12/1
f 697/11/1 698/5/1 699/6/1 700/12/1
f 701/11/1 702/5/1 703/6/1 704/12/1
f 705/11/1 706/5/1 707/6/1 708/12/1
f 709/1/1 710/2/1 711/3/1 712/4/1
f 713/11/1 714/5/1 715/6/1 716/12/1
f 717/11/1 718/5/1 719/6/1 720/12/1
f 721/11/1 722/5/1 723/6/1 724/12/1
f 725/13/1 726/7/1 727/10/1 728/14/1
f 729/1/1 730/2/1 731/3/1 732/4/1
f 733/5/1 734/1/1 735/4/1 736/6/1
f 737/5/1 738/1/1 739/4/1 740/6/1
f 741/5/1 742/1/1 743/4/1 744/6/1
f 745/5/1 746/1/1 747/4/1 748/6/1
f 749/1/1 750/2/1 751/3/1 752/4/1
f 753/1/1 754/2/1 755/3/1 756/4/1
f 757/1/1 758/2/1 759/3/1 760/4/1
f 761/5/1 762/1/1 763/4/1 764/6/1
f 765/5/1 766/1/1 767/4/1 768/6/1
f 769/5/1 770/1/1 771/4/1 772/6/1
f 773/5/1 774/1/1 775/4/1 776/6/1
f 777/5/1 778/1/1 779/4/1 780/6/1
f 781/1/1 782/2/1 783/3/1 784/4/1
f 785/1/1 786/2/1 787/3/1 788/4/1
f 789/7/1 790/8/1 791/9/1 792/10/1

