# Tiled2Unity generated file. Do not modify by hand.
# Wavefront file for 'Underground-Cavern_mesh_0006.obj'

# Vertices (Count = 268)
v -25 -5 0
v -26 -5 0
v -26 -4 0
v -25 -4 0
v -38 -5 0
v -39 -5 0
v -39 -4 0
v -38 -4 0
v -39 -5 0
v -40 -5 0
v -40 -4 0
v -39 -4 0
v -47 -5 0
v -48 -5 0
v -48 -4 0
v -47 -4 0
v -30 -6 0
v -31 -6 0
v -31 -5 0
v -30 -5 0
v -31 -6 0
v -32 -6 0
v -32 -5 0
v -31 -5 0
v -32 -6 0
v -33 -6 0
v -33 -5 0
v -32 -5 0
v -48 -8 0
v -49 -8 0
v -49 -7 0
v -48 -7 0
v -35 -9 0
v -36 -9 0
v -36 -8 0
v -35 -8 0
v -40 -9 0
v -41 -9 0
v -41 -8 0
v -40 -8 0
v -44 -9 0
v -45 -9 0
v -45 -8 0
v -44 -8 0
v -16 -11 0
v -17 -11 0
v -17 -10 0
v -16 -10 0
v -17 -11 0
v -18 -11 0
v -18 -10 0
v -17 -10 0
v -48 -11 0
v -49 -11 0
v -49 -10 0
v -48 -10 0
v -16 -12 0
v -17 -12 0
v -17 -11 0
v -16 -11 0
v -17 -12 0
v -18 -12 0
v -18 -11 0
v -17 -11 0
v -48 -12 0
v -49 -12 0
v -49 -11 0
v -48 -11 0
v -48 -16 0
v -49 -16 0
v -49 -15 0
v -48 -15 0
v -45 -17 0
v -46 -17 0
v -46 -16 0
v -45 -16 0
v -42 -18 0
v -43 -18 0
v -43 -17 0
v -42 -17 0
v -12 -19 0
v -13 -19 0
v -13 -18 0
v -12 -18 0
v -19 -20 0
v -20 -20 0
v -20 -19 0
v -19 -19 0
v -47 -20 0
v -48 -20 0
v -48 -19 0
v -47 -19 0
v -48 -20 0
v -49 -20 0
v -49 -19 0
v -48 -19 0
v -47 -21 0
v -48 -21 0
v -48 -20 0
v -47 -20 0
v -12 -24 0
v -13 -24 0
v -13 -23 0
v -12 -23 0
v -28 -25 0
v -29 -25 0
v -29 -24 0
v -28 -24 0
v -32 -25 0
v -33 -25 0
v -33 -24 0
v -32 -24 0
v -44 -25 0
v -45 -25 0
v -45 -24 0
v -44 -24 0
v -44 -26 0
v -45 -26 0
v -45 -25 0
v -44 -25 0
v -41 -27 0
v -42 -27 0
v -42 -26 0
v -41 -26 0
v -42 -27 0
v -43 -27 0
v -43 -26 0
v -42 -26 0
v -32 -28 0
v -33 -28 0
v -33 -27 0
v -32 -27 0
v -41 -28 0
v -42 -28 0
v -42 -27 0
v -41 -27 0
v -42 -28 0
v -43 -28 0
v -43 -27 0
v -42 -27 0
v -22 -29 0
v -23 -29 0
v -23 -28 0
v -22 -28 0
v -44 -29 0
v -45 -29 0
v -45 -28 0
v -44 -28 0
v -45 -29 0
v -46 -29 0
v -46 -28 0
v -45 -28 0
v -41 -30 0
v -42 -30 0
v -42 -29 0
v -41 -29 0
v -41 -31 0
v -42 -31 0
v -42 -30 0
v -41 -30 0
v -33 -32 0
v -34 -32 0
v -34 -31 0
v -33 -31 0
v -12 -33 0
v -13 -33 0
v -13 -32 0
v -12 -32 0
v -33 -33 0
v -34 -33 0
v -34 -32 0
v -33 -32 0
v -37 -33 0
v -38 -33 0
v -38 -32 0
v -37 -32 0
v -12 -34 0
v -13 -34 0
v -13 -33 0
v -12 -33 0
v -5 -36 0
v -6 -36 0
v -6 -35 0
v -5 -35 0
v -5 -37 0
v -6 -37 0
v -6 -36 0
v -5 -36 0
v -39 -38 0
v -40 -38 0
v -40 -37 0
v -39 -37 0
v -11 -39 0
v -12 -39 0
v -12 -38 0
v -11 -38 0
v -27 -39 0
v -28 -39 0
v -28 -38 0
v -27 -38 0
v -27 -40 0
v -28 -40 0
v -28 -39 0
v -27 -39 0
v -28 -40 0
v -29 -40 0
v -29 -39 0
v -28 -39 0
v -27 -41 0
v -28 -41 0
v -28 -40 0
v -27 -40 0
v -28 -41 0
v -29 -41 0
v -29 -40 0
v -28 -40 0
v -31 -41 0
v -32 -41 0
v -32 -40 0
v -31 -40 0
v -36 -41 0
v -37 -41 0
v -37 -40 0
v -36 -40 0
v -42 -41 0
v -43 -41 0
v -43 -40 0
v -42 -40 0
v -4 -42 0
v -5 -42 0
v -5 -41 0
v -4 -41 0
v -22 -42 0
v -23 -42 0
v -23 -41 0
v -22 -41 0
v -8 -45 0
v -9 -45 0
v -9 -44 0
v -8 -44 0
v -41 -45 0
v -42 -45 0
v -42 -44 0
v -41 -44 0
v -13 -46 0
v -14 -46 0
v -14 -45 0
v -13 -45 0
v -28 -46 0
v -29 -46 0
v -29 -45 0
v -28 -45 0
v -29 -46 0
v -30 -46 0
v -30 -45 0
v -29 -45 0
v -3 -47 0
v -4 -47 0
v -4 -46 0
v -3 -46 0
v -20 -47 0
v -21 -47 0
v -21 -46 0
v -20 -46 0
v -21 -47 0
v -22 -47 0
v -22 -46 0
v -21 -46 0

# Texture cooridinates (Count = 33)
vt 0.9375 0.46875
vt 0.96875 0.46875
vt 0.96875 0.5
vt 0.9375 0.5
vt 1 0.46875
vt 1 0.5
vt 0.9375 0.375
vt 0.96875 0.375
vt 0.96875 0.40625
vt 0.9375 0.40625
vt 0.90625 0.46875
vt 0.90625 0.5
vt 0.90625 0.40625
vt 0.9375 0.4375
vt 0.90625 0.4375
vt 0.96875 0.53125
vt 0.9375 0.53125
vt 0.90625 0.375
vt 0.8125 0.375
vt 0.84375 0.375
vt 0.84375 0.40625
vt 0.8125 0.40625
vt 0.875 0.375
vt 0.875 0.40625
vt 0.8125 0.34375
vt 0.84375 0.34375
vt 0.875 0.34375
vt 0.75 0.375
vt 0.78125 0.375
vt 0.78125 0.40625
vt 0.75 0.40625
vt 0.75 0.34375
vt 0.78125 0.34375

# Normal
vn 0 0 -1

# Mesh description
g Underground-Cavern_mesh_0006

# Faces
f 1/1/1 2/2/1 3/3/1 4/4/1
f 5/2/1 6/5/1 7/6/1 8/3/1
f 9/7/1 10/8/1 11/9/1 12/10/1
f 13/11/1 14/1/1 15/4/1 16/12/1
f 17/7/1 18/8/1 19/9/1 20/10/1
f 21/13/1 22/10/1 23/14/1 24/15/1
f 25/2/1 26/5/1 27/6/1 28/3/1
f 29/4/1 30/3/1 31/16/1 32/17/1
f 33/4/1 34/3/1 35/16/1 36/17/1
f 37/18/1 38/7/1 39/10/1 40/13/1
f 41/7/1 42/8/1 43/9/1 44/10/1
f 45/19/1 46/20/1 47/21/1 48/22/1
f 49/20/1 50/23/1 51/24/1 52/21/1
f 53/15/1 54/14/1 55/1/1 56/11/1
f 57/25/1 58/26/1 59/20/1 60/19/1
f 61/26/1 62/27/1 63/23/1 64/20/1
f 65/2/1 66/5/1 67/6/1 68/3/1
f 69/11/1 70/1/1 71/4/1 72/12/1
f 73/13/1 74/10/1 75/14/1 76/15/1
f 77/2/1 78/5/1 79/6/1 80/3/1
f 81/1/1 82/2/1 83/3/1 84/4/1
f 85/13/1 86/10/1 87/14/1 88/15/1
f 89/13/1 90/10/1 91/14/1 92/15/1
f 93/1/1 94/2/1 95/3/1 96/4/1
f 97/18/1 98/7/1 99/10/1 100/13/1
f 101/18/1 102/7/1 103/10/1 104/13/1
f 105/15/1 106/14/1 107/1/1 108/11/1
f 109/11/1 110/1/1 111/4/1 112/12/1
f 113/2/1 114/5/1 115/6/1 116/3/1
f 117/15/1 118/14/1 119/1/1 120/11/1
f 121/19/1 122/20/1 123/21/1 124/22/1
f 125/20/1 126/23/1 127/24/1 128/21/1
f 129/2/1 130/5/1 131/6/1 132/3/1
f 133/25/1 134/26/1 135/20/1 136/19/1
f 137/26/1 138/27/1 139/23/1 140/20/1
f 141/7/1 142/8/1 143/9/1 144/10/1
f 145/15/1 146/14/1 147/1/1 148/11/1
f 149/13/1 150/10/1 151/14/1 152/15/1
f 153/11/1 154/1/1 155/4/1 156/12/1
f 157/15/1 158/14/1 159/1/1 160/11/1
f 161/4/1 162/3/1 163/16/1 164/17/1
f 165/2/1 166/5/1 167/6/1 168/3/1
f 169/2/1 170/5/1 171/6/1 172/3/1
f 173/2/1 174/5/1 175/6/1 176/3/1
f 177/1/1 178/2/1 179/3/1 180/4/1
f 181/13/1 182/10/1 183/14/1 184/15/1
f 185/15/1 186/14/1 187/1/1 188/11/1
f 189/11/1 190/1/1 191/4/1 192/12/1
f 193/15/1 194/14/1 195/1/1 196/11/1
f 197/11/1 198/1/1 199/4/1 200/12/1
f 201/28/1 202/29/1 203/30/1 204/31/1
f 205/29/1 206/19/1 207/22/1 208/30/1
f 209/32/1 210/33/1 211/29/1 212/28/1
f 213/33/1 214/25/1 215/19/1 216/29/1
f 217/15/1 218/14/1 219/1/1 220/11/1
f 221/1/1 222/2/1 223/3/1 224/4/1
f 225/15/1 226/14/1 227/1/1 228/11/1
f 229/2/1 230/5/1 231/6/1 232/3/1
f 233/15/1 234/14/1 235/1/1 236/11/1
f 237/2/1 238/5/1 239/6/1 240/3/1
f 241/18/1 242/7/1 243/10/1 244/13/1
f 245/13/1 246/10/1 247/14/1 248/15/1
f 249/1/1 250/2/1 251/3/1 252/4/1
f 253/1/1 254/2/1 255/3/1 256/4/1
f 257/11/1 258/1/1 259/4/1 260/12/1
f 261/15/1 262/14/1 263/1/1 264/11/1
f 265/15/1 266/14/1 267/1/1 268/11/1

