# Wavefront OBJ file automatically generated by Tiled2Unity

# Vertices (Count = 204)
v -16 -13 0
v -17 -13 0
v -17 -12 0
v -16 -12 0
v -18 -13 0
v -18 -12 0
v -19 -13 0
v -19 -12 0
v -20 -13 0
v -20 -12 0
v -21 -13 0
v -21 -12 0
v -22 -13 0
v -22 -12 0
v -23 -13 0
v -23 -12 0
v -24 -13 0
v -24 -12 0
v -25 -13 0
v -25 -12 0
v -26 -13 0
v -26 -12 0
v -27 -13 0
v -27 -12 0
v -28 -13 0
v -28 -12 0
v -29 -13 0
v -29 -12 0
v -30 -13 0
v -30 -12 0
v -31 -13 0
v -31 -12 0
v -32 -13 0
v -32 -12 0
v -33 -13 0
v -33 -12 0
v -16 -14 0
v -17 -14 0
v -18 -14 0
v -19 -14 0
v -20 -14 0
v -21 -14 0
v -22 -14 0
v -23 -14 0
v -24 -14 0
v -25 -14 0
v -26 -14 0
v -27 -14 0
v -28 -14 0
v -29 -14 0
v -30 -14 0
v -31 -14 0
v -32 -14 0
v -33 -14 0
v -16 -15 0
v -17 -15 0
v -18 -15 0
v -19 -15 0
v -20 -15 0
v -21 -15 0
v -22 -15 0
v -23 -15 0
v -24 -15 0
v -25 -15 0
v -26 -15 0
v -27 -15 0
v -28 -15 0
v -29 -15 0
v -30 -15 0
v -31 -15 0
v -32 -15 0
v -33 -15 0
v -16 -16 0
v -17 -16 0
v -18 -16 0
v -19 -16 0
v -20 -16 0
v -21 -16 0
v -22 -16 0
v -23 -16 0
v -24 -16 0
v -25 -16 0
v -26 -16 0
v -27 -16 0
v -28 -16 0
v -29 -16 0
v -30 -16 0
v -31 -16 0
v -32 -16 0
v -33 -16 0
v -16 -17 0
v -17 -17 0
v -18 -17 0
v -19 -17 0
v -20 -17 0
v -21 -17 0
v -22 -17 0
v -23 -17 0
v -24 -17 0
v -25 -17 0
v -26 -17 0
v -27 -17 0
v -28 -17 0
v -29 -17 0
v -30 -17 0
v -31 -17 0
v -32 -17 0
v -33 -17 0
v -22 -18 0
v -23 -18 0
v -24 -18 0
v -25 -18 0
v -15 -18 0
v -16 -18 0
v -15 -17 0
v -33 -18 0
v -34 -18 0
v -34 -17 0
v -15 -10 0
v -16 -10 0
v -16 -9 0
v -15 -9 0
v -17 -10 0
v -17 -9 0
v -18 -10 0
v -18 -9 0
v -19 -10 0
v -19 -9 0
v -20 -10 0
v -20 -9 0
v -21 -10 0
v -21 -9 0
v -22 -10 0
v -22 -9 0
v -23 -10 0
v -23 -9 0
v -24 -10 0
v -24 -9 0
v -25 -10 0
v -25 -9 0
v -26 -10 0
v -26 -9 0
v -27 -10 0
v -27 -9 0
v -28 -10 0
v -28 -9 0
v -29 -10 0
v -29 -9 0
v -30 -10 0
v -30 -9 0
v -31 -10 0
v -31 -9 0
v -32 -10 0
v -32 -9 0
v -33 -10 0
v -33 -9 0
v -34 -10 0
v -34 -9 0
v -15 -11 0
v -16 -11 0
v -17 -11 0
v -18 -11 0
v -19 -11 0
v -20 -11 0
v -21 -11 0
v -22 -11 0
v -23 -11 0
v -24 -11 0
v -25 -11 0
v -26 -11 0
v -27 -11 0
v -28 -11 0
v -29 -11 0
v -30 -11 0
v -31 -11 0
v -32 -11 0
v -33 -11 0
v -34 -11 0
v -15 -12 0
v -34 -12 0
v -15 -13 0
v -34 -13 0
v -15 -14 0
v -34 -14 0
v -15 -15 0
v -34 -15 0
v -15 -16 0
v -34 -16 0
v -17 -18 0
v -18 -18 0
v -19 -18 0
v -20 -18 0
v -21 -18 0
v -26 -18 0
v -27 -18 0
v -28 -18 0
v -29 -18 0
v -30 -18 0
v -31 -18 0
v -32 -18 0
v -22 -19 0
v -23 -19 0
v -24 -19 0
v -25 -19 0

# Texture cooridinates (Count = 372)
vt 0.4063721 0.4063721
vt 0.4373779 0.4063721
vt 0.4373779 0.4373779
vt 0.4063721 0.4373779
vt 0.4801221 0.8934554
vt 0.5065446 0.8934554
vt 0.5065446 0.9198779
vt 0.4801221 0.9198779
vt 0.4534554 0.9201221
vt 0.4798779 0.9201221
vt 0.4798779 0.9465446
vt 0.4534554 0.9465446
vt 0.5867887 0.8934554
vt 0.6132113 0.8934554
vt 0.6132113 0.9198779
vt 0.5867887 0.9198779
vt 0.08012207 0.8667887
vt 0.1065446 0.8667887
vt 0.1065446 0.8932112
vt 0.08012207 0.8932112
vt 0.1067887 0.8667887
vt 0.1332113 0.8667887
vt 0.1332113 0.8932112
vt 0.1067887 0.8932112
vt 0.1867887 0.8667887
vt 0.2132113 0.8667887
vt 0.2132113 0.8932112
vt 0.1867887 0.8932112
vt 0.3201221 0.8667887
vt 0.3465446 0.8667887
vt 0.3465446 0.8932112
vt 0.3201221 0.8932112
vt 0.5601221 0.8934554
vt 0.5865446 0.8934554
vt 0.5865446 0.9198779
vt 0.5601221 0.9198779
vt 0.5867887 0.8667887
vt 0.6132113 0.8667887
vt 0.6132113 0.8932112
vt 0.5867887 0.8932112
vt 0.08012207 0.8401221
vt 0.1065446 0.8401221
vt 0.1065446 0.8665446
vt 0.08012207 0.8665446
vt 0.1067887 0.8401221
vt 0.1332113 0.8401221
vt 0.1332113 0.8665446
vt 0.1067887 0.8665446
vt 0.1867887 0.8401221
vt 0.2132113 0.8401221
vt 0.2132113 0.8665446
vt 0.1867887 0.8665446
vt 0.3201221 0.8401221
vt 0.3465446 0.8401221
vt 0.3465446 0.8665446
vt 0.3201221 0.8665446
vt 0.5601221 0.8667887
vt 0.5865446 0.8667887
vt 0.5865446 0.8932112
vt 0.5601221 0.8932112
vt 0.5867887 0.8401221
vt 0.6132113 0.8401221
vt 0.6132113 0.8665446
vt 0.5867887 0.8665446
vt 0.08012207 0.8134554
vt 0.1065446 0.8134554
vt 0.1065446 0.839878
vt 0.08012207 0.839878
vt 0.1067887 0.8134554
vt 0.1332113 0.8134554
vt 0.1332113 0.839878
vt 0.1067887 0.839878
vt 0.1867887 0.8134554
vt 0.2132113 0.8134554
vt 0.2132113 0.839878
vt 0.1867887 0.839878
vt 0.3201221 0.8134554
vt 0.3465446 0.8134554
vt 0.3465446 0.839878
vt 0.3201221 0.839878
vt 0.5601221 0.8401221
vt 0.5865446 0.8401221
vt 0.5865446 0.8665446
vt 0.5601221 0.8665446
vt 0.5867887 0.8134554
vt 0.6132113 0.8134554
vt 0.6132113 0.839878
vt 0.5867887 0.839878
vt 0.5601221 0.8134554
vt 0.5865446 0.8134554
vt 0.5865446 0.839878
vt 0.5601221 0.839878
vt 0.5867887 0.7867887
vt 0.6132113 0.7867887
vt 0.6132113 0.8132113
vt 0.5867887 0.8132113
vt 0.5601221 0.7867887
vt 0.5865446 0.7867887
vt 0.5865446 0.8132113
vt 0.5601221 0.8132113
vt 0.5867887 0.7601221
vt 0.6132113 0.7601221
vt 0.6132113 0.7865446
vt 0.5867887 0.7865446
vt 0.5601221 0.7601221
vt 0.5865446 0.7601221
vt 0.5865446 0.7865446
vt 0.5601221 0.7865446
vt 0.5867887 0.7334554
vt 0.6132113 0.7334554
vt 0.6132113 0.7598779
vt 0.5867887 0.7598779
vt 0.5601221 0.7334554
vt 0.5865446 0.7334554
vt 0.5865446 0.7598779
vt 0.5601221 0.7598779
vt 0.5867887 0.7067888
vt 0.6132113 0.7067888
vt 0.6132113 0.7332113
vt 0.5867887 0.7332113
vt 0.0534554 0.7067888
vt 0.07987793 0.7067888
vt 0.07987793 0.7332113
vt 0.0534554 0.7332113
vt 0.08012207 0.7067888
vt 0.1065446 0.7067888
vt 0.1065446 0.7332113
vt 0.08012207 0.7332113
vt 0.2401221 0.7067888
vt 0.2665446 0.7067888
vt 0.2665446 0.7332113
vt 0.2401221 0.7332113
vt 0.2667888 0.7067888
vt 0.2932113 0.7067888
vt 0.2932113 0.7332113
vt 0.2667888 0.7332113
vt 0.2934554 0.7067888
vt 0.3198779 0.7067888
vt 0.3198779 0.7332113
vt 0.2934554 0.7332113
vt 0.3201221 0.7067888
vt 0.3465446 0.7067888
vt 0.3465446 0.7332113
vt 0.3201221 0.7332113
vt 0.5601221 0.6267887
vt 0.5865446 0.6267887
vt 0.5865446 0.6532112
vt 0.5601221 0.6532112
vt 0.5867887 0.6267887
vt 0.6132113 0.6267887
vt 0.6132113 0.6532112
vt 0.5867887 0.6532112
vt 0.2134554 0.7067888
vt 0.2398779 0.7067888
vt 0.2398779 0.7332113
vt 0.2134554 0.7332113
vt 0.3467887 0.7067888
vt 0.3732113 0.7067888
vt 0.3732113 0.7332113
vt 0.3467887 0.7332113
vt 0.3734554 0.7067888
vt 0.3998779 0.7067888
vt 0.3998779 0.7332113
vt 0.3734554 0.7332113
vt 0.4001221 0.7067888
vt 0.4265446 0.7067888
vt 0.4265446 0.7332113
vt 0.4001221 0.7332113
vt 0.5455766 0.6001221
vt 0.6362416 0.6001221
vt 0.6362416 0.7998779
vt 0.5455766 0.7998779
vt 0.5455766 0.8001221
vt 0.6362416 0.8001221
vt 0.6362416 0.9998779
vt 0.5455766 0.9998779
vt 0.6364857 0.8001221
vt 0.7271507 0.8001221
vt 0.7271507 0.9998779
vt 0.6364857 0.9998779
vt 0.0001220703 0.7501221
vt 0.4998779 0.7501221
vt 0.4998779 0.9998779
vt 0.0001220703 0.9998779
vt 0.0001220703 0.5001221
vt 0.4998779 0.5001221
vt 0.4998779 0.7498779
vt 0.0001220703 0.7498779
vt 0.5001221 0.7501221
vt 0.9998779 0.7501221
vt 0.9998779 0.9998779
vt 0.5001221 0.9998779
vt 0.5001221 0.2501221
vt 0.9998779 0.2501221
vt 0.9998779 0.4998779
vt 0.5001221 0.4998779
vt 0.0001220703 0.2501221
vt 0.4998779 0.2501221
vt 0.4998779 0.4998779
vt 0.0001220703 0.4998779
vt 0.5001221 0.0001220703
vt 0.9998779 0.0001220703
vt 0.9998779 0.2498779
vt 0.5001221 0.2498779
vt 0.0001220703 0.923199
vt 0.1665446 0.923199
vt 0.1665446 0.9998779
vt 0.1667887 0.923199
vt 0.3332113 0.923199
vt 0.3332113 0.9998779
vt 0.1667887 0.9998779
vt 0.3334554 0.923199
vt 0.4998779 0.923199
vt 0.3334554 0.9998779
vt 0.5001221 0.923199
vt 0.6665446 0.923199
vt 0.6665446 0.9998779
vt 0.6667888 0.6924298
vt 0.8332112 0.6924298
vt 0.8332112 0.7691087
vt 0.6667888 0.7691087
vt 0.0001220703 0.8462759
vt 0.1665446 0.8462759
vt 0.1665446 0.9229549
vt 0.0001220703 0.9229549
vt 0.1667887 0.8462759
vt 0.3332113 0.8462759
vt 0.3332113 0.9229549
vt 0.1667887 0.9229549
vt 0.3334554 0.8462759
vt 0.4998779 0.8462759
vt 0.4998779 0.9229549
vt 0.3334554 0.9229549
vt 0.5001221 0.8462759
vt 0.6665446 0.8462759
vt 0.6665446 0.9229549
vt 0.5001221 0.9229549
vt 0.6667888 0.6155066
vt 0.8332112 0.6155066
vt 0.8332112 0.6921856
vt 0.6667888 0.6921856
vt 0.0001220703 0.7693529
vt 0.1665446 0.7693529
vt 0.1665446 0.8460318
vt 0.0001220703 0.8460318
vt 0.1667887 0.7693529
vt 0.3332113 0.7693529
vt 0.3332113 0.8460318
vt 0.1667887 0.8460318
vt 0.3334554 0.7693529
vt 0.4998779 0.7693529
vt 0.4998779 0.8460318
vt 0.3334554 0.8460318
vt 0.5001221 0.7693529
vt 0.6665446 0.7693529
vt 0.6665446 0.8460318
vt 0.5001221 0.8460318
vt 0.6667888 0.5385836
vt 0.8332112 0.5385836
vt 0.8332112 0.6152625
vt 0.6667888 0.6152625
vt 0.1819403 0.2001221
vt 0.2726052 0.2001221
vt 0.2726052 0.3998779
vt 0.1819403 0.3998779
vt 0.1819403 0.8001221
vt 0.2726052 0.8001221
vt 0.2726052 0.9998779
vt 0.1819403 0.9998779
vt 0.2728494 0.8001221
vt 0.3635143 0.8001221
vt 0.3635143 0.9998779
vt 0.2728494 0.9998779
vt 0.3637584 0.0001220703
vt 0.4544234 0.0001220703
vt 0.4544234 0.1998779
vt 0.3637584 0.1998779
vt 0.1819403 0.0001220703
vt 0.2726052 0.0001220703
vt 0.2726052 0.1998779
vt 0.1819403 0.1998779
vt 0.1819403 0.6001221
vt 0.2726052 0.6001221
vt 0.2726052 0.7998779
vt 0.1819403 0.7998779
vt 0.2728494 0.6001221
vt 0.3635143 0.6001221
vt 0.3635143 0.7998779
vt 0.2728494 0.7998779
vt 0.3637584 0.8001221
vt 0.4544234 0.8001221
vt 0.4544234 0.9998779
vt 0.3637584 0.9998779
vt 0.4546675 0.8001221
vt 0.5453325 0.8001221
vt 0.5453325 0.9998779
vt 0.4546675 0.9998779
vt 0.1819403 0.400122
vt 0.2726052 0.400122
vt 0.2726052 0.599878
vt 0.1819403 0.599878
vt 0.2728494 0.400122
vt 0.3635143 0.400122
vt 0.3635143 0.599878
vt 0.2728494 0.599878
vt 0.3637584 0.6001221
vt 0.4544234 0.6001221
vt 0.4544234 0.7998779
vt 0.3637584 0.7998779
vt 0.4546675 0.6001221
vt 0.5453325 0.6001221
vt 0.5453325 0.7998779
vt 0.4546675 0.7998779
vt 0.3637584 0.2001221
vt 0.4544234 0.2001221
vt 0.4544234 0.3998779
vt 0.3637584 0.3998779
vt 0.3637584 0.400122
vt 0.4544234 0.400122
vt 0.4544234 0.599878
vt 0.3637584 0.599878
vt 0.4546675 0.400122
vt 0.5453325 0.400122
vt 0.5453325 0.599878
vt 0.4546675 0.599878
vt 0.2501221 0.900122
vt 0.2998779 0.900122
vt 0.2998779 0.9498779
vt 0.2501221 0.9498779
vt 0.5001221 0.3126221
vt 0.5623779 0.3126221
vt 0.5623779 0.3748779
vt 0.5001221 0.3748779
vt 0.6876221 0.3751221
vt 0.7498779 0.3751221
vt 0.7498779 0.4373779
vt 0.6876221 0.4373779
vt 0.0001220703 0.6667887
vt 0.4998779 0.6667887
vt 0.1667887 0.6924298
vt 0.3332113 0.6924298
vt 0.3332113 0.7691087
vt 0.1667887 0.7691087
vt 0.1667887 0.6155066
vt 0.3332113 0.6155066
vt 0.3332113 0.6921856
vt 0.1667887 0.6921856
vt 0.1667887 0.5385836
vt 0.3332113 0.5385836
vt 0.3332113 0.6152625
vt 0.1667887 0.6152625
vt 0.6667888 0.8462759
vt 0.8332112 0.8462759
vt 0.8332112 0.9229549
vt 0.6667888 0.9229549
vt 0.6667888 0.7693529
vt 0.8332112 0.7693529
vt 0.8332112 0.8460318
vt 0.6667888 0.8460318
vt 0.05012207 0.4501221
vt 0.09987793 0.4501221
vt 0.09987793 0.4998779
vt 0.05012207 0.4998779
vt 0.1001221 0.4501221
vt 0.1498779 0.4501221
vt 0.1498779 0.4998779
vt 0.1001221 0.4998779
vt 0.6364857 0.400122
vt 0.7271507 0.400122
vt 0.7271507 0.599878
vt 0.6364857 0.599878
vt 0.0001220703 0.0001220703

# Normal
vn 0 0 -1

# Groups (Count = 6)

g mesh_0001
f 1/1/1 2/2/1 3/3/1 4/4/1
f 2/1/1 5/2/1 6/3/1 3/4/1
f 5/1/1 7/2/1 8/3/1 6/4/1
f 7/1/1 9/2/1 10/3/1 8/4/1
f 9/1/1 11/2/1 12/3/1 10/4/1
f 11/1/1 13/2/1 14/3/1 12/4/1
f 13/1/1 15/2/1 16/3/1 14/4/1
f 15/1/1 17/2/1 18/3/1 16/4/1
f 17/1/1 19/2/1 20/3/1 18/4/1
f 19/1/1 21/2/1 22/3/1 20/4/1
f 21/1/1 23/2/1 24/3/1 22/4/1
f 23/1/1 25/2/1 26/3/1 24/4/1
f 25/1/1 27/2/1 28/3/1 26/4/1
f 27/1/1 29/2/1 30/3/1 28/4/1
f 29/1/1 31/2/1 32/3/1 30/4/1
f 31/1/1 33/2/1 34/3/1 32/4/1
f 33/1/1 35/2/1 36/3/1 34/4/1
f 37/1/1 38/2/1 2/3/1 1/4/1
f 38/1/1 39/2/1 5/3/1 2/4/1
f 39/1/1 40/2/1 7/3/1 5/4/1
f 40/1/1 41/2/1 9/3/1 7/4/1
f 41/1/1 42/2/1 11/3/1 9/4/1
f 42/1/1 43/2/1 13/3/1 11/4/1
f 43/1/1 44/2/1 15/3/1 13/4/1
f 44/1/1 45/2/1 17/3/1 15/4/1
f 45/1/1 46/2/1 19/3/1 17/4/1
f 46/1/1 47/2/1 21/3/1 19/4/1
f 47/1/1 48/2/1 23/3/1 21/4/1
f 48/1/1 49/2/1 25/3/1 23/4/1
f 49/1/1 50/2/1 27/3/1 25/4/1
f 50/1/1 51/2/1 29/3/1 27/4/1
f 51/1/1 52/2/1 31/3/1 29/4/1
f 52/1/1 53/2/1 33/3/1 31/4/1
f 53/1/1 54/2/1 35/3/1 33/4/1
f 55/1/1 56/2/1 38/3/1 37/4/1
f 56/1/1 57/2/1 39/3/1 38/4/1
f 57/1/1 58/2/1 40/3/1 39/4/1
f 58/1/1 59/2/1 41/3/1 40/4/1
f 59/1/1 60/2/1 42/3/1 41/4/1
f 60/1/1 61/2/1 43/3/1 42/4/1
f 61/1/1 62/2/1 44/3/1 43/4/1
f 62/1/1 63/2/1 45/3/1 44/4/1
f 63/1/1 64/2/1 46/3/1 45/4/1
f 64/1/1 65/2/1 47/3/1 46/4/1
f 65/1/1 66/2/1 48/3/1 47/4/1
f 66/1/1 67/2/1 49/3/1 48/4/1
f 67/1/1 68/2/1 50/3/1 49/4/1
f 68/1/1 69/2/1 51/3/1 50/4/1
f 69/1/1 70/2/1 52/3/1 51/4/1
f 70/1/1 71/2/1 53/3/1 52/4/1
f 71/1/1 72/2/1 54/3/1 53/4/1
f 73/1/1 74/2/1 56/3/1 55/4/1
f 74/1/1 75/2/1 57/3/1 56/4/1
f 75/1/1 76/2/1 58/3/1 57/4/1
f 76/1/1 77/2/1 59/3/1 58/4/1
f 77/1/1 78/2/1 60/3/1 59/4/1
f 78/1/1 79/2/1 61/3/1 60/4/1
f 79/1/1 80/2/1 62/3/1 61/4/1
f 80/1/1 81/2/1 63/3/1 62/4/1
f 81/1/1 82/2/1 64/3/1 63/4/1
f 82/1/1 83/2/1 65/3/1 64/4/1
f 83/1/1 84/2/1 66/3/1 65/4/1
f 84/1/1 85/2/1 67/3/1 66/4/1
f 85/1/1 86/2/1 68/3/1 67/4/1
f 86/1/1 87/2/1 69/3/1 68/4/1
f 87/1/1 88/2/1 70/3/1 69/4/1
f 88/1/1 89/2/1 71/3/1 70/4/1
f 89/1/1 90/2/1 72/3/1 71/4/1
f 91/1/1 92/2/1 74/3/1 73/4/1
f 92/1/1 93/2/1 75/3/1 74/4/1
f 93/1/1 94/2/1 76/3/1 75/4/1
f 94/1/1 95/2/1 77/3/1 76/4/1
f 95/1/1 96/2/1 78/3/1 77/4/1
f 96/1/1 97/2/1 79/3/1 78/4/1
f 97/1/1 98/2/1 80/3/1 79/4/1
f 98/1/1 99/2/1 81/3/1 80/4/1
f 99/1/1 100/2/1 82/3/1 81/4/1
f 100/1/1 101/2/1 83/3/1 82/4/1
f 101/1/1 102/2/1 84/3/1 83/4/1
f 102/1/1 103/2/1 85/3/1 84/4/1
f 103/1/1 104/2/1 86/3/1 85/4/1
f 104/1/1 105/2/1 87/3/1 86/4/1
f 105/1/1 106/2/1 88/3/1 87/4/1
f 106/1/1 107/2/1 89/3/1 88/4/1
f 107/1/1 108/2/1 90/3/1 89/4/1
f 109/1/1 110/2/1 98/3/1 97/4/1
f 110/1/1 111/2/1 99/3/1 98/4/1
f 111/1/1 112/2/1 100/3/1 99/4/1

g mesh_0002
f 113/5/1 114/6/1 91/7/1 115/8/1
f 116/9/1 117/10/1 118/11/1 108/12/1

g mesh_0003
f 119/13/1 120/14/1 121/15/1 122/16/1
f 120/17/1 123/18/1 124/19/1 121/20/1
f 123/21/1 125/22/1 126/23/1 124/24/1
f 125/25/1 127/26/1 128/27/1 126/28/1
f 127/25/1 129/26/1 130/27/1 128/28/1
f 129/25/1 131/26/1 132/27/1 130/28/1
f 131/25/1 133/26/1 134/27/1 132/28/1
f 133/25/1 135/26/1 136/27/1 134/28/1
f 135/25/1 137/26/1 138/27/1 136/28/1
f 137/25/1 139/26/1 140/27/1 138/28/1
f 139/25/1 141/26/1 142/27/1 140/28/1
f 141/25/1 143/26/1 144/27/1 142/28/1
f 143/25/1 145/26/1 146/27/1 144/28/1
f 145/25/1 147/26/1 148/27/1 146/28/1
f 147/25/1 149/26/1 150/27/1 148/28/1
f 149/25/1 151/26/1 152/27/1 150/28/1
f 151/25/1 153/26/1 154/27/1 152/28/1
f 153/29/1 155/30/1 156/31/1 154/32/1
f 155/33/1 157/34/1 158/35/1 156/36/1
f 159/37/1 160/38/1 120/39/1 119/40/1
f 160/41/1 161/42/1 123/43/1 120/44/1
f 161/45/1 162/46/1 125/47/1 123/48/1
f 162/49/1 163/50/1 127/51/1 125/52/1
f 163/49/1 164/50/1 129/51/1 127/52/1
f 164/49/1 165/50/1 131/51/1 129/52/1
f 165/49/1 166/50/1 133/51/1 131/52/1
f 166/49/1 167/50/1 135/51/1 133/52/1
f 167/49/1 168/50/1 137/51/1 135/52/1
f 168/49/1 169/50/1 139/51/1 137/52/1
f 169/49/1 170/50/1 141/51/1 139/52/1
f 170/49/1 171/50/1 143/51/1 141/52/1
f 171/49/1 172/50/1 145/51/1 143/52/1
f 172/49/1 173/50/1 147/51/1 145/52/1
f 173/49/1 174/50/1 149/51/1 147/52/1
f 174/49/1 175/50/1 151/51/1 149/52/1
f 175/49/1 176/50/1 153/51/1 151/52/1
f 176/53/1 177/54/1 155/55/1 153/56/1
f 177/57/1 178/58/1 157/59/1 155/60/1
f 179/61/1 4/62/1 160/63/1 159/64/1
f 4/65/1 3/66/1 161/67/1 160/68/1
f 3/69/1 6/70/1 162/71/1 161/72/1
f 6/73/1 8/74/1 163/75/1 162/76/1
f 8/73/1 10/74/1 164/75/1 163/76/1
f 10/73/1 12/74/1 165/75/1 164/76/1
f 12/73/1 14/74/1 166/75/1 165/76/1
f 14/73/1 16/74/1 167/75/1 166/76/1
f 16/73/1 18/74/1 168/75/1 167/76/1
f 18/73/1 20/74/1 169/75/1 168/76/1
f 20/73/1 22/74/1 170/75/1 169/76/1
f 22/73/1 24/74/1 171/75/1 170/76/1
f 24/73/1 26/74/1 172/75/1 171/76/1
f 26/73/1 28/74/1 173/75/1 172/76/1
f 28/73/1 30/74/1 174/75/1 173/76/1
f 30/73/1 32/74/1 175/75/1 174/76/1
f 32/73/1 34/74/1 176/75/1 175/76/1
f 34/77/1 36/78/1 177/79/1 176/80/1
f 36/81/1 180/82/1 178/83/1 177/84/1
f 181/85/1 1/86/1 4/87/1 179/88/1
f 35/89/1 182/90/1 180/91/1 36/92/1
f 183/93/1 37/94/1 1/95/1 181/96/1
f 54/97/1 184/98/1 182/99/1 35/100/1
f 185/101/1 55/102/1 37/103/1 183/104/1
f 72/105/1 186/106/1 184/107/1 54/108/1
f 187/109/1 73/110/1 55/111/1 185/112/1
f 90/113/1 188/114/1 186/115/1 72/116/1
f 115/117/1 91/118/1 73/119/1 187/120/1
f 108/97/1 118/98/1 188/99/1 90/100/1

g mesh_0004
f 145/33/1 147/34/1 148/35/1 146/36/1
f 172/57/1 173/58/1 147/59/1 145/60/1
f 26/81/1 28/82/1 173/83/1 172/84/1
f 25/89/1 27/90/1 28/91/1 26/92/1
f 49/97/1 50/98/1 27/99/1 25/100/1
f 67/105/1 68/106/1 50/107/1 49/108/1
f 85/113/1 86/114/1 68/115/1 67/116/1
f 114/121/1 189/122/1 92/123/1 91/124/1
f 189/125/1 190/126/1 93/127/1 92/128/1
f 190/129/1 191/130/1 94/131/1 93/132/1
f 191/133/1 192/134/1 95/135/1 94/136/1
f 192/137/1 193/138/1 96/139/1 95/140/1
f 193/141/1 109/142/1 97/143/1 96/144/1
f 109/145/1 110/146/1 98/147/1 97/148/1
f 111/149/1 112/150/1 100/151/1 99/152/1
f 112/153/1 194/154/1 101/155/1 100/156/1
f 194/141/1 195/142/1 102/143/1 101/144/1
f 195/157/1 196/158/1 103/159/1 102/160/1
f 196/161/1 197/162/1 104/163/1 103/164/1
f 197/165/1 198/166/1 105/167/1 104/168/1
f 198/157/1 199/158/1 106/159/1 105/160/1
f 199/161/1 200/162/1 107/163/1 106/164/1
f 200/165/1 116/166/1 108/167/1 107/168/1

g mesh_0005
f 45/169/1 46/170/1 19/171/1 17/172/1
f 46/169/1 47/170/1 21/171/1 19/172/1
f 63/173/1 64/174/1 46/175/1 45/176/1
f 64/177/1 65/178/1 47/179/1 46/180/1

g mesh_0006
f 139/181/1 141/182/1 142/183/1 140/184/1
f 169/185/1 170/186/1 141/187/1 139/188/1
f 16/189/1 18/190/1 168/191/1 167/192/1
f 18/193/1 20/194/1 169/195/1 168/196/1
f 20/197/1 22/198/1 170/199/1 169/200/1
f 22/193/1 24/194/1 171/195/1 170/196/1
f 19/201/1 21/202/1 22/203/1 20/204/1

g mesh_0007
f 160/205/1 161/206/1 123/207/1 120/184/1
f 161/208/1 162/209/1 125/210/1 123/211/1
f 163/212/1 164/213/1 129/183/1 127/214/1
f 166/215/1 167/216/1 135/217/1 133/192/1
f 173/218/1 174/219/1 149/220/1 147/221/1
f 4/222/1 3/223/1 161/224/1 160/225/1
f 3/226/1 6/227/1 162/228/1 161/229/1
f 8/230/1 10/231/1 164/232/1 163/233/1
f 14/234/1 16/235/1 167/236/1 166/237/1
f 28/238/1 30/239/1 174/240/1 173/241/1
f 1/242/1 2/243/1 3/244/1 4/245/1
f 2/246/1 5/247/1 6/248/1 3/249/1
f 7/250/1 9/251/1 10/252/1 8/253/1
f 13/254/1 15/255/1 16/256/1 14/257/1
f 27/258/1 29/259/1 30/260/1 28/261/1

g mesh_0008
f 24/262/1 26/263/1 172/264/1 171/265/1
f 30/266/1 32/267/1 175/268/1 174/269/1
f 32/270/1 34/271/1 176/272/1 175/273/1
f 17/274/1 19/275/1 20/276/1 18/277/1
f 23/278/1 25/279/1 26/280/1 24/281/1
f 29/282/1 31/283/1 32/284/1 30/285/1
f 31/286/1 33/287/1 34/288/1 32/289/1
f 45/290/1 46/291/1 19/292/1 17/293/1
f 46/294/1 47/295/1 21/296/1 19/297/1
f 51/298/1 52/299/1 31/300/1 29/301/1
f 52/302/1 53/303/1 33/304/1 31/305/1
f 63/306/1 64/307/1 46/308/1 45/309/1
f 64/310/1 65/311/1 47/312/1 46/313/1
f 71/314/1 72/315/1 54/316/1 53/317/1
f 81/318/1 82/319/1 64/320/1 63/321/1
f 82/322/1 83/323/1 65/324/1 64/325/1

g mesh_0009
f 15/326/1 17/327/1 18/328/1 16/329/1

g mesh_0010
f 21/330/1 23/331/1 24/332/1 22/333/1
f 91/334/1 92/335/1 74/336/1 73/337/1
f 107/334/1 108/335/1 90/336/1 89/337/1

g mesh_0011
f 33/338/1 35/339/1 36/183/1 34/184/1

g mesh_0012
f 165/340/1 166/341/1 133/342/1 131/343/1
f 12/344/1 14/345/1 166/346/1 165/347/1
f 11/348/1 13/349/1 14/350/1 12/351/1
f 63/352/1 64/353/1 46/354/1 45/355/1
f 64/356/1 65/357/1 47/358/1 46/359/1

g mesh_0013
f 45/360/1 46/361/1 19/362/1 17/363/1
f 46/364/1 47/365/1 21/366/1 19/367/1

g mesh_0014
f 81/368/1 82/369/1 64/370/1 63/371/1
f 82/368/1 83/369/1 65/370/1 64/371/1

g mesh_0015
f 4/372/1 3/202/1 161/191/1 160/184/1
f 3/372/1 6/202/1 162/191/1 161/184/1
f 6/372/1 8/202/1 163/191/1 162/184/1
f 8/372/1 10/202/1 164/191/1 163/184/1
f 10/372/1 12/202/1 165/191/1 164/184/1
f 12/372/1 14/202/1 166/191/1 165/184/1
f 14/372/1 16/202/1 167/191/1 166/184/1
f 16/372/1 18/202/1 168/191/1 167/184/1
f 18/372/1 20/202/1 169/191/1 168/184/1
f 20/372/1 22/202/1 170/191/1 169/184/1
f 22/372/1 24/202/1 171/191/1 170/184/1
f 24/372/1 26/202/1 172/191/1 171/184/1
f 26/372/1 28/202/1 173/191/1 172/184/1
f 28/372/1 30/202/1 174/191/1 173/184/1
f 30/372/1 32/202/1 175/191/1 174/184/1
f 32/372/1 34/202/1 176/191/1 175/184/1
f 34/372/1 36/202/1 177/191/1 176/184/1
f 201/372/1 202/202/1 110/191/1 109/184/1
f 202/372/1 203/202/1 111/191/1 110/184/1
f 203/372/1 204/202/1 112/191/1 111/184/1

